/* XPM */
static char *cde93494c31144e8b086110c2da09c2ffKzHdBZAREPOUoZz[] = {
/* columns rows colors chars-per-pixel */
"50 50 56 1 ",
"  c #7B0818",
". c #414141",
"X c #474343",
"o c #4C4746",
"O c #554A4A",
"+ c #784848",
"@ c #7D4F4F",
"# c #7F534F",
"$ c #645553",
"% c #685252",
"& c #6D6459",
"* c #70675B",
"= c #7F6863",
"- c #A41820",
"; c #E62931",
": c #8F6A5F",
"> c #906868",
", c #966E6D",
"< c #817565",
"1 c #9B7871",
"2 c #A77F7A",
"3 c #928471",
"4 c #A48673",
"5 c #AB837E",
"6 c #EE9C7B",
"7 c gray61",
"8 c #B89088",
"9 c #BA9E89",
"0 c #BD998C",
"q c #B5A188",
"w c #B8A088",
"e c #BFAA8F",
"r c #C19E8F",
"t c #C4A291",
"y c #CAAB95",
"u c #C6A499",
"i c #CBAA9F",
"p c #CDB098",
"a c #CEB298",
"s c #CEB598",
"d c #D0B59A",
"f c #D3B99C",
"g c #D3BA9D",
"h c #D5BD9E",
"j c #D7BE9F",
"k c #C2AEA1",
"l c #D1B2A6",
"z c #D8C0A0",
"x c #D9C1A1",
"c c #DCC4A9",
"v c #DDC2B3",
"b c #E4CCB8",
"n c #E6CEBC",
"m c #E8D0BF",
"M c #E8D0C0",
"N c #F6FFFF",
/* pixels */
"zzzzMMzzzzzzzzzzzz8888zzzz8888zzzzzzmmzzzzzzzzzzzz",
"zzzzMMzzzzzzzzzzzz8888zzzz8888zzzzzzmmzzzzzzzzzzzz",
"zzzzzzMMzzzzzzzzzzzz8888>>>>zzzzzzzzzzmmzzzzzzzzzz",
"zzzzzzMMzzzzzzzzzzzz8888>>>>zzzzzzzzzzmmzzzzzzzzzz",
"zzzzzzzzzzzzzzzzzzzzzz88>>>>zzzzzzzzzzzzzzzzzzzzzz",
"zzzzzzzzzzzzzzzzzzzzzz88>>>>zzzzzzzzzzzzzzzzzzzzzz",
"zzzzzzzz8888zzzzzzzzzzzz88>>zzzzzzzzzzzz8888zzzzzz",
"zzzzzzzz8888zzzzzzzzzzzz88>>zzzzzzzzzzzz8888zzzzzz",
"zz88zzzz8888zzzzzzzzzz88888888zzzz88zzzz8888zzzzzz",
"zz88zzzz8888zzzzzzzzzz88888888zzzz88zzzz8888zzzzzz",
"88zzzzzzzz8888zzzzzzzzzzzz88888888zzzzzzzz8888zzzz",
"88zzzzzzzz8888zzzzzzzzzzzz88888888zzzzzzzz8888zzzz",
"zzzzzzzzzzzz8888zzzjw4:#+#@>5888zzzzzzzzzzzz8888zz",
"zzzzzzzzzzzz8888zjy1>........,28zzzzzzzzzzzz8888zz",
"zzzzzzzzzz888888u88>>........>>rszzzzzzzzz88888888",
"zzzzzzzzzz88888tg....--------...&szzzzzzzz88888888",
"zzzzzzzz888888ufz....--------....0dxxxzz8888888888",
"zzzzzzzz888888v..--;;66;;;;----  .<lxxzz8888888888",
"zzzzzz8888888lm..--;;66;;;;----  ..9zz8888888888>>",
"zzzzzz8888888jz..;;66NN66;;;;----..bzz8888888888>>",
"zzzz88888888ljj..;;66NN66;;;;----..ml888888888>>>>",
"zzzz88888888y..--;;;;66;;;;;;----  .=888888888>>>>",
"zz8888888888s..--;;;;66;;;;;;----  .$8888888>>>>>>",
"zz8888888888j..;;;;;;;;....------  .X8888888>>>>>>",
"888888zzzz88z..;;;;;;;;....------  ..8zzzz88>>>>88",
"888888zzzz88z....;;;;..NN77..--  ...o8zzzz88>>>>88",
"8888zzmmMMMMf....;;;;..NN77..--  ...&zMMMMMM888888",
"8888zzmmmmMMa..NN......7777......77.3zMMMMMM888888",
">>zzMMMMzzzzz..NN......7777......77.kMMMzzzzzz8888",
">>zzMMMMzzzzznM..NNNNNN....777777..zmMMMzzzzzz8888",
"zzzzMMzzzzzzzvm..NNNNNN....777777..zMMzzzzzzzzzzzz",
"zzzzMMzzzzzzzzb..77NNNNNN77777777.<zMMzzzzzzzzzzzz",
"zzzzMMzzzzzzzzc&.77NNNNNN77777777&ezMMzzzzzzzzzzzz",
"zzzzMMzzzzzzzzzzx....77777777...&zzzMMzzzzzzzzzzzz",
"zzzzzzMMzzzzzzzzz=...77777777..<ezzzzzMMzzzzzzzzzz",
"zzzzzzMMzzzzzzzzzzzzz........zzzzzzzzzMMzzzzzzzzzz",
"zzzzzzzzzzzzzzzzzzzzz3$o.XO%qzzzzzzzzzzzzzzzzzzzzz",
"zzzzzzzzzzzzzzzzzzzzzz88>>>>zzzzzzzzzzzzzzzzzzzzzz",
"zzzzzzzz8888zzzzzzzzzzzz88>>zzzzzzzzzzzz8888zzzzzz",
"zzzzzzzz8888zzzzzzzzzzzz88>>zzzzzzzzzzzz8888zzzzzz",
"zz88zzzz8888zzzzzzzzzz88888888zzzz88zzzz8888zzzzzz",
"zz88zzzz8888zzzzzzzzzz88888888zzzz88zzzz8888zzzzzz",
"88zzzzzzzz8888zzzzzzzzzzzz88888888zzzzzzzz8888zzzz",
"88zzzzzzzz8888zzzzzzzzzzzz88888888zzzzzzzz8888zzzz",
"zzzzzzzzzzzz8888zzzzzzzzzz>>8888zzzzzzzzzzzz8888zz",
"zzzzzzzzzzzz8888zzzzzzzzzz>>8888zzzzzzzzzzzz8888zz",
"zzzzzzzzzz88888888zzzzzz88>>>>zzzzzzzzzzzz88888888",
"zzzzzzzzzz88888888zzzzzz88>>>>zzzzzzzzzzzz88888888",
"zzzzzzzz8888888888>>888888>>zzzzzzzzzzzz8888888888",
"zzzzzzzz8888888888>>888888>>zzzzzzzzzzzz8888888888"
};
