/* XPM */
static char *_69a12a194504b39b513530147d30712v42Pk3SeTCFvQUYT[] = {
/* columns rows colors chars-per-pixel */
"50 50 11 1 ",
"  c #010000",
". c #484838",
"X c #684028",
"o c #907048",
"O c #A07858",
"+ c #906868",
"@ c #C8A878",
"# c #B89088",
"$ c #D8C0A0",
"% c #F8E8A0",
"& c #E8D0C0",
/* pixels */
"$$$$&&$$$$$$$......%%%%%%............&$$$$$$$$$$$$",
"$$$$&&$$$$$$$......%%%%%%............&$$$$$$$$$$$$",
"$$$$$$&&$$$$$......%%%%%%............$&&$$$$$$$$$$",
"$$$$$$&.........%%%@@@.....................$$$$$$$",
"$$$$$$$.........%%%@@@.....................$$$$$$$",
"$$$$$$$.........%%%@@@.....................$$$$$$$",
"$$$$.........XXX@@@   ...   ...   ...   ......$$$$",
"$$$$.........XXX@@@   ...   ...   ...   ......$$$$",
"$$##.........XXX@@@   ...   ...   ...   ......$$$$",
"$.........   XXXooo@@@   ...   ...   ...oooooo..$$",
"#.........   XXXooo@@@   ...   ...   ...oooooo..$$",
"#.........   XXXooo@@@   ...   ...   ...oooooo..$$",
"$......      XXX@@@OOO%%%            ooo%%%%%%..$$",
"$......      XXX@@@OOO%%%            ooo%%%%%%..$$",
"$......      XXX@@@OOO%%%            ooo%%%%%%..##",
"$...         XXX@@@   OOO%%%         %%%@@@   ..##",
"$...         XXX@@@   OOO%%%         %%%@@@   ..##",
"$...         XXX@@@   OOO%%%         %%%@@@   ..##",
"$...         XXX@@@      ooo%%%   ooo%%%      ..++",
"$...         XXX@@@      ooo%%%   ooo%%%      ..++",
"$...         XXX@@@      ooo%%%   ooo%%%      ..++",
"$...         XXXOOO@@@      OOO@@@XXX%%%      ..++",
"$...         XXXOOO@@@      OOO@@@XXX%%%      ..++",
"$...         XXXOOO@@@      OOO@@@XXX%%%      ..++",
"#...         XXXOOOOOO@@@      OOOXXX@@@      ..##",
"#...         XXXOOOOOO@@@      OOOXXX@@@      ..##",
"#...         XXXOOOOOO@@@      OOOXXX@@@      ..##",
"#...         XXXOOO   OOO@@@      XXX@@@      ..##",
"+...         XXXOOO   OOO@@@      XXX@@@      ..##",
"+...         XXXOOO   OOO@@@      XXX@@@      ..##",
"$...            XXX      OOO@@@   XXX@@@      $$$$",
"$...            XXX      OOO@@@   XXX@@@      $$$$",
"$...            XXX      OOO@@@   XXX@@@      $$$$",
"$...            XXXOOO      ooo@@@XXX@@@      $$$$",
"$...            XXXOOO      ooo@@@XXX@@@      $$$$",
"$...            XXXOOO      ooo@@@XXX@@@      $$$$",
"$......            XXXXXX      oooXXX@@@      ..$$",
"$......            XXXXXX      oooXXX@@@      ..$$",
"$......            XXXXXX      oooXXX@@@      ..$$",
"$$$$......            XXXXXX      XXXXXX   ...$$$$",
"$$##......            XXXXXX      XXXXXX   ...$$$$",
"$$##......            XXXXXX      XXXXXX   ...$$$$",
"##$$$$$.........         XXXXXX   XXX   ...###$$$$",
"##$$$$$.........         XXXXXX   XXX   ...###$$$$",
"$$$$$$$.........         XXXXXX   XXX   ...$####$$",
"$$$$$$$$$$$$#...........................$$$$####$$",
"$$$$$$$$$$###...........................$$########",
"$$$$$$$$$$###...........................$$########",
"$$$$$$$$##########++######++$$$$$$$$$$$$##########",
"$$$$$$$$##########++######++$$$$$$$$$$$$##########"
};
