/* XPM */
static char *_4455006d8534066fc5367a7ce9de844hOhFlCmZz1gvLQyo[] = {
/* columns rows colors chars-per-pixel */
"50 50 56 1 ",
"  c black",
". c #1B120E",
"X c #1E1010",
"o c #0E1C31",
"O c #102C20",
"+ c #1C3028",
"@ c #102038",
"# c #3C2020",
"$ c #283430",
"% c #5A3030",
"& c #693838",
"* c #29384E",
"= c #386050",
"- c #384878",
"; c #784040",
": c #744F4A",
"> c #77504C",
", c #766058",
"< c #A83838",
"1 c #90544C",
"2 c #A86858",
"3 c #826460",
"4 c #906868",
"5 c #BD7E62",
"6 c #C04040",
"7 c #C07C64",
"8 c #A1854D",
"9 c #A38954",
"0 c #B89858",
"q c #E8B055",
"w c #D89070",
"e c #E09C78",
"r c #F8C058",
"t c #4E5C87",
"y c #466682",
"u c #606E94",
"i c #687498",
"p c #748090",
"a c #B89088",
"s c #8894B0",
"d c #909AB4",
"f c #98A0B8",
"g c #F0B488",
"h c #F8C090",
"j c #D8C0A0",
"k c #B0BACC",
"l c #BCC3D2",
"z c #C4CDDA",
"x c #C8CCD8",
"c c #E8D0C0",
"v c #D8E0E8",
"b c #E0E2E8",
"n c #E0E6EC",
"m c #E8ECF0",
"M c #F0F2F4",
"N c #F8F8F8",
/* pixels */
"jjjjccjjjjjjjjjjjjaaaajjjjaaaajjjjjjccjjjjjjjjjjjj",
"jjjjccjjjjjjjjjjjjaaaajjjjaaaajjjjjjccjjjjjjjjjjjj",
"jjjjjjccjjjjjjjjjjjjaaaa4444jjjjjjjjjjccjjjjjjjjjj",
"jjjjjjccjjjjjjjjjjjjaaaa4444jjjjjjjjjjccjjjjjjjjjj",
"jjjjjjjjjjjjjjjjjjj--jaa4444jjjjjjjjjjjjjjjjjjjjjj",
"jjjjjjjjjjjjjjjjjj-bf-aa4444jjjjjjjjjjjjjjjjjjjjjj",
"jjjjjjjjaaaajjjjj--NNf-jaa44jjjjjjjjjjjjaaaajjjjjj",
"jjjjjjjjaaaajjjj---NNNf------yjjjjjjjjjjaaaajjjjjj",
"jjaajjjjaaaajjj---tMMMMlu------jjjaajjjjaaaajjjjjj",
"jjaajjjjaaaajj-zvvnnnnnnvvnMNxi-jjaajjjjaaaajjjjjj",
"aajjjjjjjjaaaa-svvvvvnnnnnmMNNNf-ajjjjjjjjaaaajjjj",
"aajjjjjjjjaaaaj-svvvnmMMMMMNNNNNf-jjjjjjjjaaaajjjj",
"jjjjjjjjjjjjaaa-svvvnmMMMNNMMNNNMd-jjjjjjjjjaaaajj",
"jjjjjjjjjjjjaa-uvvvvvnnnmMMmmMNNMnu-jjjjjjjjaaaajj",
"jjjjjjjjjjaaa--kvvvvvvvvnmmnnmMMmnk--jjjjjaaaaaaaa",
"jjjjjjjjjjaaa  vvvvvvvvvvnnvvnnnnvv  jjjjjaaaaaaaa",
"jjjjjjjjaaaaa  vvvvvvvvvvvvvvvvvvvv  jjjaaaaaaaaaa",
"jjjjjjjjaaaaa  @*vvvvvvvvvvvvvvvv*@  jjjaaaaaaaaaa",
"jjjjjjaaaaaaa  o@vvvvvvvvvvvvvvvv@o  jaaaaaaaaaa44",
"jjjjjjaaaaa>;w5  vvppvvvvvvvvppvv  5w;>aaaaaaaaa44",
"jjjjaaaaaaa;;ww  vp@@pvvvvvvp@@pv  ww;;aaaaaaa4444",
"jjjjaaaaaaa,;7w;;@@@@@pvvvvp@@@@@;;w7;,aaaaaaa4444",
"jjaaaaaaaaaa;1w;;@@@@@@vvvv@@@@@@;;w1;aaaaaa444444",
"jjaaaaaaaaaa4;1wwww            wwww1;,aaaaaa444444",
"aaaaaajjjjaa44;2www.          .www2;;ajjjjaa4444aa",
"aaaaaajjjjaa443;2wwweghhhhhhgewww2;aaajjjjaa4444aa",
"aaaajjccccccaaa;;wwweghhhhhhgewww;;ajjccccccaaaaaa",
"aaaajjccccccaaa    66;;;;;;;;66    ajjccccccaaaaaa",
"44jjccccjjjjjj+    66;;;;;;;;66    jccccjjjjjjaaaa",
"44jjccccjjjjjj <6@@@@        @@@@6< ccccjjjjjjaaaa",
"jjjjccjjjjjjj  66@@@o        o@@@66  cjjjjjjjjjjjj",
"jjjjccjjjjj>;rr;;    80NNNN08    ;;rr;:jjjjjjjjjjj",
"jjjjccjjjjj;;rr;;    00NNNN00    ;;rr;;jjjjjjjjjjj",
"jjjjccjjjjj;;0000  &;rrrrrrrr;&  0000@@jjjjjjjjjjj",
"jjjjjjccjjj:;0008  ;;qrrrrrrq;;  8009@ccjjjjjjjjjj",
"jjjjjjccjjjjj      ;;;;;;;;;;;;    @@jccjjjjjjjjjj",
"jjjjjjjjjjjjj=     &;;;;;;;;;;&    @jjjjjjjjjjjjjj",
"jjjjjjjjjjjjjj+      00000000      jjjjjjjjjjjjjjj",
"jjjjjjjjaaaajjj      80000008      jjjjjaaaajjjjjj",
"jjjjjjjjaaaajjj  &#            #&  jjjjjaaaajjjjjj",
"jjaajjjjaaaajjj  ;;%X        X%;;  ajjjjaaaajjjjjj",
"jjaajjjjaaaajjj$ ;;;;;&    &;;;;; +ajjjjaaaajjjjjj",
"aajjjjjjjjaaaajj &;;;;&    &;;;;& jjjjjjjjaaaajjjj",
"aajjjjjjjjaaaajjj      +jj+      ajjjjjjjjaaaajjjj",
"jjjjjjjjjjjjaaaajj+  Ojjjj44+  +jjjjjjjjjjjjaaaajj",
"jjjjjjjjjjjjaaaajjjjjjjjjj44aaaajjjjjjjjjjjjaaaajj",
"jjjjjjjjjjaaaaaaaajjjjjjaa4444jjjjjjjjjjjjaaaaaaaa",
"jjjjjjjjjjaaaaaaaajjjjjjaa4444jjjjjjjjjjjjaaaaaaaa",
"jjjjjjjjaaaaaaaaaa44aaaaaa44jjjjjjjjjjjjaaaaaaaaaa",
"jjjjjjjjaaaaaaaaaa44aaaaaa44jjjjjjjjjjjjaaaaaaaaaa"
};
