/* XPM */
static char *_6c0f897843c451ae4d00a36bcd69e3dXum2M1MzhdN2hxfJ[] = {
/* columns rows colors chars-per-pixel */
"50 50 75 1 ",
"  c black",
". c #020407",
"X c #04060B",
"o c #04080E",
"O c #08101C",
"+ c #1E1010",
"@ c #0C182A",
"# c #0E1C31",
"$ c #102C20",
"% c #1C3028",
"& c #102038",
"* c #3C2020",
"= c #283430",
"- c #5A3030",
"; c #68303C",
": c #693838",
"> c #162642",
", c #1A2A48",
"< c #2B3141",
"1 c #2D3647",
"2 c #223256",
"3 c #283860",
"4 c #2E3E68",
"5 c #2C5C48",
"6 c #386050",
"7 c #384878",
"8 c #784040",
"9 c #744F4A",
"0 c #77504C",
"q c #766058",
"w c #515F7C",
"e c #A83838",
"r c #AA3C3F",
"t c #AD3F44",
"y c #844A46",
"u c #9C4040",
"i c #945A50",
"p c #B74040",
"a c #986054",
"s c #A86858",
"d c #906868",
"f c #C04040",
"g c #DC5956",
"h c #F86058",
"j c #A38954",
"k c #B89858",
"l c #D89070",
"z c #E09C78",
"x c #D8A07C",
"c c #D9A87E",
"v c #F8C058",
"b c #4E5C87",
"n c #466682",
"m c #606E94",
"M c #687498",
"N c #B89088",
"B c #8894B0",
"V c #98A0B8",
"C c #A6B0BC",
"Z c #E8A880",
"A c #F0B488",
"S c #F8C090",
"D c #D8C0A0",
"F c #F8D0B0",
"G c #BCC3D2",
"H c #C4CDDA",
"J c #C8CCD8",
"K c #E8D0C0",
"L c #DDDFE4",
"P c #D8E0E8",
"I c #E0E2E8",
"U c #E0E6EC",
"Y c #E8ECF0",
"T c #F0F2F4",
"R c #F8F8F8",
/* pixels */
"DDDDKKDDDDDDDDDDDDNNNNDDDDNNNNDDDDDDKKDDDDDDDDDDDD",
"DDDDKKDDDDDDDDDDDDNNNNDDDDNNNNDDDDDDKKDDDDDDDDDDDD",
"DDDDDDKKDDDDDDDDDDDDNNNNddddDDDDDDDDDDKKDDDDDDDDDD",
"DDDDDDKKDDDDDDDDDDDDNNNNddddDDDDDDDDDDKKDDDDDDDDDD",
"DDDDDDDDDDDDDDDDDDDDDDNNddddD77DDDDDDDDDDDDDDDDDDD",
"DDDDDDDDDDDDDDDDDDDDDDNNdddd7VI7DDDDDDDDDDDDDDDDDD",
"DDDDDDDDNNNNDDDDDDDDDDDDNNd7VRR77DDDDDDDNNNNDDDDDD",
"DDDDDDDDNNNNDDDDDDDDn777777VRRR777DDDDDDNNNNDDDDDD",
"DDNNDDDDNNNNDDDDDDD777777mGTTTTb777NDDDDNNNNDDDDDD",
"DDNNDDDDNNNNDDDDDD7MJRTUPPUUUUUUPPH7DDDDNNNNDDDDDD",
"NNDDDDDDDDNNNNDDD7VRRRTYUUUUUPPPPPB7DDDDDDNNNNDDDD",
"NNDDDDDDDDNNNNDD7VRRRRRTTTTTYUPPPB7DDDDDDDNNNNDDDD",
"DDDDDDDDDDDDNNN74LRRRRRRRRRRTUPCw47DDDDDDDDDNNNNDD",
"DDDDDDDDDDDDNNN X,&hhhh&&&&hhhh&,X DDDDDDDDDNNNNDD",
"DDDDDDDDDDNNNN% O&>ghhh&&&&hhhg>&O %DDDDDDNNNNNNNN",
"DDDDDDDDDDNNNN o&&>23ffffffff32>&&o DDDDDDNNNNNNNN",
"DDDDDDDDNNNNN% @&&>23tfffffft32>&&@ %DDDNNNNNNNNNN",
"DDDDDDDDNNNNN  &&&>233333333332>&&&  DDDNNNNNNNNNN",
"DDDDDDNNNNNNN  #&&>233333333332>&&#  DNNNNNNNNNNdd",
"DDDDDDNNNNN08Sc  FFFFFFFFFFFFFFFF  cS80NNNNNNNNNdd",
"DDDDNNNNNNN88SS  FFFFFFFFFFFFFFFF  SS88NNNNNNNdddd",
"DDDDNNNNNNNq8xS88FFFF11FFFF11FFFF88Sx8qNNNNNNNdddd",
"DDNNNNNNNNNN8aA88FFFF&&FFFF&&FFFF88Aa8NNNNNNdddddd",
"DDNNNNNNNNNNd8izllzAS&&SSSS&&SAzllzi8qNNNNNNdddddd",
"NNNNNNDDDDNNdd8sllzZA<<ASSA<<AZzlls88NDDDDNNddddNN",
"NNNNNNDDDDNNddd8sllzzzzASSAzzzzlls8NNNDDDDNNddddNN",
"NNNNDDKKKKKKNNN88lllllzZAAZzlllll88NDDKKKKKKNNNNNN",
"NNNNDDKKKKKKNNN    8yllzzzzlly8    NDDKKKKKKNNNNNN",
"ddDDKKKKDDDDDD%    88llllllll88    6KKKKDDDDDDNNNN",
"ddDDKKKKDDDDD6 ef&&&&        &&&&fe 5KKKDDDDDDNNNN",
"DDDDKKDDDDDDD  ff&&&&.      .&&&&ff  KDDDDDDDDDDDD",
"DDDDKKDDDDD08vvvv .&&&&ffff&&&&. vvvv89DDDDDDDDDDD",
"DDDDKKDDDDD88vvvv  &&&&rffr&&&&  vvvv88DDDDDDDDDDD",
"DDDDKKDDDDD88kkkk88f;&&&&&&&&;f88kkkk&&DDDDDDDDDDD",
"DDDDDDKKDDD98kkkk88uf;&&&&&&;fu88kkkj&KKDDDDDDDDDD",
"DDDDDDKKDDDDD    +-8uf;&&&&;fu8-+  &&DKKDDDDDDDDDD",
"DDDDDDDDDDDDD6     *8uf&&&&fu8*    &DDDDDDDDDDDDDD",
"DDDDDDDDDDDDDD%     *88888888*     DDDDDDDDDDDDDDD",
"DDDDDDDDNNNNDDD      +-8888-+      DDDDDNNNNDDDDDD",
"DDDDDDDDNNNNDDD  :*            *:  DDDDDNNNNDDDDDD",
"DDNNDDDDNNNNDDD  88-+        +-88  NDDDDNNNNDDDDDD",
"DDNNDDDDNNNNDDD= fp88fe    ef88pf %NDDDDNNNNDDDDDD",
"NNDDDDDDDDNNNNDD ef88fe    ef88fe DDDDDDDDNNNNDDDD",
"NNDDDDDDDDNNNNDDD      %DD%      NDDDDDDDDNNNNDDDD",
"DDDDDDDDDDDDNNNNDD%  $DDDDdd%  %DDDDDDDDDDDDNNNNDD",
"DDDDDDDDDDDDNNNNDDDDDDDDDDddNNNNDDDDDDDDDDDDNNNNDD",
"DDDDDDDDDDNNNNNNNNDDDDDDNNddddDDDDDDDDDDDDNNNNNNNN",
"DDDDDDDDDDNNNNNNNNDDDDDDNNddddDDDDDDDDDDDDNNNNNNNN",
"DDDDDDDDNNNNNNNNNNddNNNNNNddDDDDDDDDDDDDNNNNNNNNNN",
"DDDDDDDDNNNNNNNNNNddNNNNNNddDDDDDDDDDDDDNNNNNNNNNN"
};
