/* XPM */
static char *a74929da65324a4aeec6cb87b851dda2Dzff1vttoX42TR20[] = {
/* columns rows colors chars-per-pixel */
"50 50 84 1 ",
"  c black",
". c #020407",
"X c #04080E",
"o c #1B120E",
"O c #08101C",
"+ c #1D1510",
"@ c #1B1C1D",
"# c #0C182A",
"$ c #0E1C31",
"% c #102C20",
"& c #1C3028",
"* c #102038",
"= c #693838",
"- c #6B3C3F",
"; c #5C4C2C",
": c #162642",
"> c #1A2A48",
", c #1C2C4C",
"< c #2B3141",
"1 c #2D3647",
"2 c #223256",
"3 c #283860",
"4 c #2E3E68",
"5 c #423C46",
"6 c #386050",
"7 c #384878",
"8 c #784040",
"9 c #645C48",
"0 c #745854",
"q c #446458",
"w c #766058",
"e c #41617A",
"r c #A83838",
"t c #AA3C3F",
"y c #804B43",
"u c #90544C",
"i c #B74040",
"p c #906868",
"a c #A67462",
"s c #C04040",
"d c #DC5956",
"f c #DD5A58",
"g c #F86058",
"h c #C07C64",
"j c #748070",
"k c #A1854D",
"l c #A38954",
"z c #B89858",
"x c #D9A84D",
"c c #CC866A",
"v c #D89070",
"b c #DC9878",
"n c #E09C78",
"m c #F8C058",
"M c #466682",
"N c #546282",
"B c #5C6886",
"V c #606E94",
"C c #687498",
"Z c #748090",
"A c #7A869A",
"S c #B89088",
"D c #8894B0",
"F c #98A0B8",
"G c #E8A880",
"H c #F0B488",
"J c #DCBBA3",
"K c #E8BEA2",
"L c #F8C090",
"P c #D8C0A0",
"I c #F6CBAA",
"U c #F8D0B0",
"Y c #ACB6C6",
"T c #B0BACC",
"R c #B8BFCC",
"E c #BCC3D2",
"W c #C8CCD8",
"Q c #E8D0C0",
"! c #D8E0E8",
"~ c #E0E2E8",
"^ c #E0E6EC",
"/ c #E8ECF0",
"( c #F0F2F4",
") c #F8F8F8",
/* pixels */
"PPPPQQPPPPPPPPPPPPSSSSPPPPSSSSPPPPPPQQPPPPPPPPPPPP",
"PPPPQQPPPPPPPPPPPPSSSSPPPPSSSSPPPPPPQQPPPPPPPPPPPP",
"PPPPPPQQPPPPPPPPPPPPSSSSppppPPPPPPPPPPQQPPPPPPPPPP",
"PPPPPPQQPPPPPPPPPPPPSSSSppppPPPPPPPPPPQQPPPPPPPPPP",
"PPPPPPPPPPPPPPPPPPPPPPSSppppP77PPPPPPPPPPPPPPPPPPP",
"PPPPPPPPPPPPPPPPPPPPPPSSpppp7F~7PPPPPPPPPPPPPPPPPP",
"PPPPPPPPSSSSPPPPPPPPPPPPSSp7F))7MPPPPPPPSSSSPPPPPP",
"PPPPPPPPSSSSPPPPPPPPM777777F)))C7PPPPPPPSSSSPPPPPP",
"PPSSPPPPSSSSPPPPPPM777777VE((((E7PSSPPPPSSSSPPPPPP",
"PPSSPPPPSSSSPPPPM77CW)(^!!^^^^^^D77MPPPPSSSSPPPPPP",
"SSPPPPPPPPSSSSP777F)))(/^^^^^!!!!TV77PPPPPSSSSPPPP",
"SSPPPPPPPPSSSS777F)))))(((((/^!!!!!TV7PPPPSSSSPPPP",
"PPPPPPPPPPPPSe447)))))((((((/^!!!!!!!DPPPPPPSSSSPP",
"PPPPPPPPPPPPS>>fggg33BR^^^^^^!!!!!!!!!PPPPPPSSSSPP",
"PPPPPPPPPPSSS**gggd2333NY!!!!!!!!!!!!!PPPPSSSSSSSS",
"PPPPPPPPPPSSSssss*:2333333333NY!!!!@ 7PPPPSSSSSSSS",
"PPPPPPPPSSSSSssst*:233333333322A!!!  7PPSSSSSSSSSS",
"PPPPPPPPSSSSS88***:2333333332,::Z!!  PPPSSSSSSSSSS",
"PPPPPPSSSSSSS88***:233222222,:***Z!  PSSSSSSSSSSpp",
"PPPPPPSSSSSSS88vvUUUUUJ::::::******  PSSSSSSSSSSpp",
"PPPPSSSSSSSSS88vbUUUUUU************  SSSSSSSSSpppp",
"PPPPSSSSSSSSS88UUUU11UUvv .******** &SSSSSSSSSpppp",
"PPSSSSSSSSSSp88UUUU**UInv  *******$ SSSSSSSSpppppp",
"PPSSSSSSSSSSp88UUUU**LHnv  LHnv    &SSSSSSSSpppppp",
"SSSSSSPPPPSSp88KUUU*<HGnvo+HHnv    SSSPPPPSSppppSS",
"SSSSSSPPPPSSpp888vvvnnnvvvnHHnv8=  SSSPPPPSSppppSS",
"SSSSPPQQQQQQSSS88cvvvvvvvvnGGvv8= qSPPQQQQQQSSSSSS",
"SSSSPPQQQQQQSSSSw88uhvvvvvvnv0*  6SSPPQQQQQQSSSSSS",
"ppPPQQQQPPPPPPSSSj888uhvvvva5**  6PPQQQQPPPPPPSSSS",
"ppPPQQQQPPPPPPSSSSj8888**ss**lzzk PPQQQQPPPPPPSSSS",
"PPPPQQPPPPPPPPPPPPj888-**ss**zzzz  PQQPPPPPPPPPPPP",
"PPPPQQPPPPPPPPPPPP8is**#X  #*zzy8mx QQPPPPPPPPPPPP",
"PPPPQQPPPPPPPPPPPw8st*O    X*9zy8mm &QPPPPPPPPPPPP",
"PPPPQQPPPPPPPPPPP88**# xmmx O*9zzzz  QPPPPPPPPPPPP",
"PPPPPPQQPPPPPPPPP88**X mmmm  O*zzz;  PQQPPPPPPPPPP",
"PPPPPPQQPPPPPPPPP  **  zzzz    zz; PPPQQPPPPPPPPPP",
"PPPPPPPPPPPPPPPPP6 $$  kzzk    k;  PPPPPPPPPPPPPPP",
"PPPPPPPPPPPPPPPPPP&              &PPPPPPPPPPPPPPPP",
"PPPPPPPPSSSSPPPPPPP             6PPPPPPPSSSSPPPPPP",
"PPPPPPPPSSSSPPPPPPP            &PPPPPPPPSSSSPPPPPP",
"PPSSPPPPSSSSPPPPPP&            PPPSSPPPPSSSSPPPPPP",
"PPSSPPPPSSSSPPPPP6 rs****zz8=  PPPSSPPPPSSSSPPPPPP",
"SSPPPPPPPPSSSSPPP6 rs****zz8= SSSSPPPPPPPPSSSSPPPP",
"SSPPPPPPPPSSSSPPPP6          6SSSSPPPPPPPPSSSSPPPP",
"PPPPPPPPPPPPSSSSPPPP&      %SSSSPPPPPPPPPPPPSSSSPP",
"PPPPPPPPPPPPSSSSPPPPPPPPPPppSSSSPPPPPPPPPPPPSSSSPP",
"PPPPPPPPPPSSSSSSSSPPPPPPSSppppPPPPPPPPPPPPSSSSSSSS",
"PPPPPPPPPPSSSSSSSSPPPPPPSSppppPPPPPPPPPPPPSSSSSSSS",
"PPPPPPPPSSSSSSSSSSppSSSSSSppPPPPPPPPPPPPSSSSSSSSSS",
"PPPPPPPPSSSSSSSSSSppSSSSSSppPPPPPPPPPPPPSSSSSSSSSS"
};
