/* XPM */
static char *_0d3adb9c91145e3c154e0de64923a8603gtsGWVNTNYmipO[] = {
/* columns rows colors chars-per-pixel */
"50 50 85 1 ",
"  c black",
". c #020407",
"X c #04080E",
"o c #1B120E",
"O c #08101C",
"+ c #1D1510",
"@ c #1B1C1D",
"# c #2E2616",
"$ c #0C182A",
"% c #0E1C31",
"& c #1C3028",
"* c #102038",
"= c #3C2020",
"- c #292E3F",
"; c #283430",
": c #68303C",
"> c #693838",
", c #5C4C2C",
"< c #162642",
"1 c #1A2A48",
"2 c #1C2C4C",
"3 c #2B3141",
"4 c #2D3647",
"5 c #223256",
"6 c #26365C",
"7 c #283860",
"8 c #2C3C66",
"9 c #2E3E68",
"0 c #2B5363",
"q c #344472",
"w c #384878",
"e c #784040",
"r c #766058",
"t c #AA3C3F",
"y c #804B43",
"u c #9C4040",
"i c #90544C",
"p c #8A7242",
"a c #906868",
"s c #C04040",
"d c #D9544D",
"f c #DC5956",
"g c #DD5A58",
"h c #F86058",
"j c #C07C64",
"k c #A1854D",
"l c #B89858",
"z c #D9A84D",
"x c #CC866A",
"c c #D89070",
"v c #DC9878",
"b c #E09C78",
"n c #F8C058",
"m c #466682",
"M c #546282",
"N c #5C6886",
"B c #526A8A",
"V c #606E94",
"C c #687498",
"Z c #748090",
"A c #7A869A",
"S c #B89088",
"D c #8894B0",
"F c #98A0B8",
"G c #E8A880",
"H c #F0B488",
"J c #DCBBA3",
"K c #E8BEA2",
"L c #F8C090",
"P c #D8C0A0",
"I c #F6CBAA",
"U c #F8D0B0",
"Y c #ACB6C6",
"T c #B0BACC",
"R c #B8BFCC",
"E c #BCC3D2",
"W c #C4CDDA",
"Q c #C8CCD8",
"! c #E8D0C0",
"~ c #D8E0E8",
"^ c #E0E2E8",
"/ c #E0E6EC",
"( c #E8ECF0",
") c #F0F2F4",
"_ c #F8F8F8",
/* pixels */
"PPPP!!PPPPPPPPPPPPSSSSPPPPSSSSPPPPPP!!PPPPPPPPPPPP",
"PPPP!!PPPPPPPPPPPPSSSSPPPPSSSSPPPPPP!!PPPPPPPPPPPP",
"PPPPPP!!PPPPPPPPPPPPSSSSaaaaPPPPPPPPPP!!PPPPPPPPPP",
"PPPPPP!!PPPPPPPPPPPPSSSSaaaaPPPPPPPPPP!!PPPPPPPPPP",
"PPPPPPPPPPPPPPPPPPPPPPSSaaaaPPwwPPPPPPPPPPPPPPPPPP",
"PPPPPPPPPPPPPPPPPPPPPPSSaaaaPwF^wPPPPPPPPPPPPPPPPP",
"PPPPPPPPSSSSPPPPPPPPPPPPSSaawF__wmPPPPPPSSSSPPPPPP",
"PPPPPPPPSSSSPPPPPPPPPmwwwwwwF___CwPPPPPPSSSSPPPPPP",
"PPSSPPPPSSSSPPPPPPPmwwwwwwVE))))EwSSPPPPSSSSPPPPPP",
"PPSSPPPPSSSSPPPPPmwwCQ_)/~~//////DwwBPPPSSSSPPPPPP",
"SSPPPPPPPPSSSSPPqwwF___)(/////~~~~TVwwPPPPSSSSPPPP",
"SSPPPPPPPPSSSSP8qwF_____)))))(/~~~~~TVwPPPSSSSPPPP",
"PPPPPPPPPPPPSS069w_____))))))(/~~~~~~~DwPPPPSSSSPP",
"PPPPPPPPPPPPSS<1ghhh77NR//////~~~~~~~~~DwPPPSSSSPP",
"PPPPPPPPPPSSSS**hhhf5777MY~~~~~~~~~~~~~WwPSSSSSSSS",
"PPPPPPPPPPSSSSssss*<5777777777MY~~~~@ wwPPSSSSSSSS",
"PPPPPPPPSSSSSSssst*<577777777755A~~~  wPSSSSSSSSSS",
"PPPPPPPPSSSSSSee***<57777777752<<Z~~  PPSSSSSSSSSS",
"PPPPPPSSSSSSSSee***<5775555552<***Z~  SSSSSSSSSSaa",
"PPPPPPSSSSSSSSeeccUUUUUJ<<<<<<******  SSSSSSSSSSaa",
"PPPPSSSSSSSSSSeecvUUUUUU************  SSSSSSSSaaaa",
"PPPPSSSSSSSSSSeeUUUU44UUcc .******** &SSSSSSSSaaaa",
"PPSSSSSSSSSSaaeeUUUU**UIbc  *******% SSSSSSSaaaaaa",
"PPSSSSSSSSSSaareUUUU**LHbc  LHbc    ;SSSSSSSaaaaaa",
"SSSSSSPPPPSSaaaeKUUU*3HGbco+HHbc    SSPPPPSSaaaaSS",
"SSSSSSPPPPSSaaaaeecccbbbcccbHHbce>  SSPPPPSSaaaaSS",
"SSSSPP!!!!!!SSSSSexccccccccbGGcce> SPP!!!!!!SSSSSS",
"SSSSPP!!!!!!SSSSSSeeijccccccbc-*  SSPP!!!!!!SSSSSS",
"aaPP!!!!PPPPPPSSSSSeeeijcccccc**  PP!!!!PPPPPPSSSS",
"aaPP!!!!PPPPPPSSSSSSeeeess**sslllk P!!!!PPPPPPSSSS",
"PPPP!!PPPPPPPPPPPPPPeeeus:**ssllll  !!PPPPPPPPPPPP",
"PPPP!!PPPPPPPPPPPPPeeeus:*$X  llyenz !PPPPPPPPPPPP",
"PPPP!!PPPPPPPPPPPPreeus:*O    ,lyenn &PPPPPPPPPPPP",
"PPPP!!PPPPPPPPPPPPeeus:*$ znnz pllll &PPPPPPPPPPPP",
"PPPPPP!!PPPPPPPPPPees:**X nnnn #lll, P!!PPPPPPPPPP",
"PPPPPP!!PPPPPPPP& ee****  llll  ll, &P!!PPPPPPPPPP",
"PPPPPPPPPPPPPPP&  >e****  kllk  k,  &PPPPPPPPPPPPP",
"PPPPPPPPPPPPPP& dd  ****          => PPPPPPPPPPPPP",
"PPPPPPPPSSSSPP& hh  %**%         =ee &PPSSSSPPPPPP",
"PPPPPPPPSSSSPP& hhlk            =eee &PPSSSSPPPPPP",
"PPSSPPPPSSSSPP& dhll            >ee> &PPSSSSPPPPPP",
"PPSSPPPPSSSSPPP&  eee>  &SSSSSP&    &PPPSSSSPPPPPP",
"SSPPPPPPPPSSSSPP& >ee> PPPSSSSSSS&&&PPPPPPSSSSPPPP",
"SSPPPPPPPPSSSSPPP&    PPPPSSSSSSSSPPPPPPPPSSSSPPPP",
"PPPPPPPPPPPPSSSSPP&&&PPPPPaaSSSSPPPPPPPPPPPPSSSSPP",
"PPPPPPPPPPPPSSSSPPPPPPPPPPaaSSSSPPPPPPPPPPPPSSSSPP",
"PPPPPPPPPPSSSSSSSSPPPPPPSSaaaaPPPPPPPPPPPPSSSSSSSS",
"PPPPPPPPPPSSSSSSSSPPPPPPSSaaaaPPPPPPPPPPPPSSSSSSSS",
"PPPPPPPPSSSSSSSSSSaaSSSSSSaaPPPPPPPPPPPPSSSSSSSSSS",
"PPPPPPPPSSSSSSSSSSaaSSSSSSaaPPPPPPPPPPPPSSSSSSSSSS"
};
