/* XPM */
static char *_2dbd5e836f64102fa704f9d0c6a4e4fETZaD0meipRYxE4Q[] = {
/* columns rows colors chars-per-pixel */
"50 50 78 1 ",
"  c black",
". c #020407",
"X c #04060B",
"o c #04080E",
"O c #0F0808",
"+ c #08101C",
"@ c #1E1010",
"# c #0C182A",
"$ c #0E1C31",
"% c #1C3028",
"& c #102038",
"* c #1D2439",
"= c #3C2020",
"- c #2A283A",
"; c #283430",
": c #44303C",
"> c #5A3030",
", c #5E383E",
"< c #693838",
"1 c #6B3C3F",
"2 c #162642",
"3 c #1A2A48",
"4 c #2B3141",
"5 c #2D3647",
"6 c #223256",
"7 c #283860",
"8 c #2E3E68",
"9 c #386050",
"0 c #384878",
"q c #784040",
"w c #77504C",
"e c #766058",
"r c #515F7C",
"t c #40706C",
"y c #A83838",
"u c #AA3C3F",
"i c #AD3F44",
"p c #844A46",
"a c #945A50",
"s c #986054",
"d c #A86858",
"f c #906868",
"g c #C04040",
"h c #DC5956",
"j c #F86058",
"k c #A1854D",
"l c #A38954",
"z c #B89858",
"x c #D9A84D",
"c c #D89070",
"v c #E09C78",
"b c #D8A07C",
"n c #D9A87E",
"m c #F8C058",
"M c #4E5C87",
"N c #466682",
"B c #606E94",
"V c #687498",
"C c #B89088",
"Z c #8894B0",
"A c #98A0B8",
"S c #A6B0BC",
"D c #E8A880",
"F c #F0B488",
"G c #F8C090",
"H c #D8C0A0",
"J c #F8D0B0",
"K c #BCC3D2",
"L c #C4CDDA",
"P c #C8CCD8",
"I c #E8D0C0",
"U c #DDDFE4",
"Y c #D8E0E8",
"T c #E0E2E8",
"R c #E0E6EC",
"E c #E8ECF0",
"W c #F0F2F4",
"Q c #F8F8F8",
/* pixels */
"HHHHIIHHHHHHHHHHHHCCCCHHHHCCCCHHHHHHIIHHHHHHHHHHHH",
"HHHHIIHHHHHHHHHHHHCCCCHHHHCCCCHHHHHHIIHHHHHHHHHHHH",
"HHHHHHIIHHHHHHHHHHHHCCCCffffHHHHHHHHHHIIHHHHHHHHHH",
"HHHHHHIIHHHHHHHHHHHHCCCCffffH00HHHHHHHIIHHHHHHHHHH",
"HHHHHHHHHHHHHHHHHHHHHHCCffff0AT0HHHHHHHHHHHHHHHHHH",
"HHHHHHHHHHHHHHHHHHHHHHCCfff0AQQ00HHHHHHHHHHHHHHHHH",
"HHHHHHHHCCCCHHHHHHHHN000000AQQQ000HHHHHHCCCCHHHHHH",
"HHHHHHHHCCCCHHHHHHH000000BKWWWWM000HHHHHCCCCHHHHHH",
"HHCCHHHHCCCCHHHHHH0VPQWRYYRRRRRRYYL0HHHHCCCCHHHHHH",
"HHCCHHHHCCCCHHHHH0AQQQWERRRRRYYYYYZ0HHHHCCCCHHHHHH",
"CCHHHHHHHHCCCCHH0AQQQQQWWWWWERYYYZ0NHHHHHHCCCCHHHH",
"CCHHHHHHHHCCCCH08UQQQQQQQQQQWRYSr80HHHHHHHCCCCHHHH",
"HHHHHHHHHHHHCCC X3&jjjj&&&&jjjj&3X HHHHHHHHHCCCCHH",
"HHHHHHHHHHHHCC% +&2hjjj&&&&jjjh2&+ %HHHHHHHHCCCCHH",
"HHHHHHHHHHCCCC o&&267gggggggg762&&o HHHHHHCCCCCCCC",
"HHHHHHHHHHCCC% #&&267iggggggi762&&# %HHHHHCCCCCCCC",
"HHHHHHHHCCCCC  &&&26777777777762&&&  HHHCCCCCCCCCC",
"HHHHHHHHCCCCC  $&&26777777777762&&$  HHHCCCCCCCCCC",
"HHHHHHCCCCCwqGn  JJJJJJJJJJJJJJJJ  nGqwCCCCCCCCCff",
"HHHHHHCCCCCqqGG  JJJJJJJJJJJJJJJJ  GGqqCCCCCCCCCff",
"HHHHCCCCCCCeqbGqqJJJJ55JJJJ55JJJJqqGbqeCCCCCCCffff",
"HHHHCCCCCCCCqsFqqJJJJ&&JJJJ&&JJJJqqFsqCCCCCCCCffff",
"HHCCCCCCCCCCfqavccvFG&&GGGG&&GFvccvaqeCCCCCCffffff",
"HHCCCCCCCCCCffqdccvDF44FGGF44FDvccdqqCCCCCCCffffff",
"CCCCCCHHHHCCfffqdccvvvvFGGFvvvvccdq= CHHHHCCffffCC",
"CCCCCCHHHHCCfffqqcccccvDFFDvcccccq=  CHHHHCCffffCC",
"CCCCHHIIIIIICCC    qpccvvvvccpq    kzqwIIIIICCCCCC",
"CCCCHHIIIIIICCC   Oqqccccccccqq    zzqqIIIIICCCCCC",
"ffHHIIIIHHHHH  ygqq*&        &&o   zz&&IHHHHHHCCCC",
"ffHHIIIIHHHHH  ygqq&&.      .&&#   zl&tIHHHHHHCCCC",
"HHHHIIHHHHHHH&$    #&&&gggg&&&&&+  &&tHHHHHHHHHHHH",
"HHHHIIHHHHHHH&$    o&&&uggu&&&&&$  &tIHHHHHHHHHHHH",
"HHHHIIHHHHHHH  xmmx #&&&&&&&&:q  HHHIIHHHHHHHHHHHH",
"HHHHIIHHHHHHH  mmmm o&&&&&&-,q=  HHHIIHHHHHHHHHHHH",
"HHHHHHIIHHHHH% zzzz  q1&&1qqq=   HHHHHIIHHHHHHHHHH",
"HHHHHHIIHHHHHH kzzk  <q&&qq>@    HHHHHIIHHHHHHHHHH",
"HHHHHHHHHHHHHHH                $&HHHHHHHHHHHHHHHHH",
"HHHHHHHHHHHHHHHH%              $&HHHHHHHHHHHHHHHHH",
"HHHHHHHHCCCCHHHHHH%      <qzzq<  HHHHHHHCCCCHHHHHH",
"HHHHHHHHCCCCHHHHHHHH;    qqzzqq  HHHHHHHCCCCHHHHHH",
"HHCCHHHHCCCCHHHHHHHHHH%  qqggqq %HCCHHHHCCCCHHHHHH",
"HHCCHHHHCCCCHHHHHHHHHHC9 <qggq< HHCCHHHHCCCCHHHHHH",
"CCHHHHHHHHCCCCHHHHHHHHHH9      9CCHHHHHHHHCCCCHHHH",
"CCHHHHHHHHCCCCHHHHHHHHHHHH%  %CCCCHHHHHHHHCCCCHHHH",
"HHHHHHHHHHHHCCCCHHHHHHHHHHffCCCCHHHHHHHHHHHHCCCCHH",
"HHHHHHHHHHHHCCCCHHHHHHHHHHffCCCCHHHHHHHHHHHHCCCCHH",
"HHHHHHHHHHCCCCCCCCHHHHHHCCffffHHHHHHHHHHHHCCCCCCCC",
"HHHHHHHHHHCCCCCCCCHHHHHHCCffffHHHHHHHHHHHHCCCCCCCC",
"HHHHHHHHCCCCCCCCCCffCCCCCCffHHHHHHHHHHHHCCCCCCCCCC",
"HHHHHHHHCCCCCCCCCCffCCCCCCffHHHHHHHHHHHHCCCCCCCCCC"
};
