/* XPM */
static char *_4078c96f05e48ec944526fe2512527bvyeikc03w3XqMWKg[] = {
/* columns rows colors chars-per-pixel */
"50 50 92 1 ",
"  c black",
". c #04080E",
"X c #1B120E",
"o c #08101C",
"O c #1E1010",
"+ c #1D1510",
"@ c #1B1C1D",
"# c #0E1626",
"$ c #0C182A",
"% c #0E1C31",
"& c #1C3028",
"* c #102038",
"= c #3C2020",
"- c #283430",
"; c #44303C",
": c #5A3030",
"> c #693838",
", c #5C4C2C",
"< c #162642",
"1 c #1A2A48",
"2 c #1C2C4C",
"3 c #2B3141",
"4 c #2D3647",
"5 c #223256",
"6 c #26365C",
"7 c #283860",
"8 c #2C3C66",
"9 c #2E3E68",
"0 c #423C46",
"q c #386050",
"w c #2B5363",
"e c #344472",
"r c #384878",
"t c #784040",
"y c #645C48",
"u c #745854",
"i c #766058",
"p c #A83838",
"a c #AA3C3F",
"s c #804B43",
"d c #844A46",
"f c #906868",
"g c #A67462",
"h c #BD7E62",
"j c #C04040",
"k c #D9544D",
"l c #DC5956",
"z c #DD5A58",
"x c #F86058",
"c c #748070",
"v c #A1854D",
"b c #A38954",
"n c #B89858",
"m c #D9A84D",
"M c #CC866A",
"N c #D89070",
"B c #DC9878",
"V c #E09C78",
"C c #F8C058",
"Z c #466682",
"A c #546282",
"S c #5C6886",
"D c #526A8A",
"F c #606E94",
"G c #687498",
"H c #54848C",
"J c #748090",
"K c #7A869A",
"L c #72A088",
"P c #B89088",
"I c #8894B0",
"U c #98A0B8",
"Y c #E8A880",
"T c #F0B488",
"R c #E8BEA2",
"E c #F8C090",
"W c #D8C0A0",
"Q c #F6CBAA",
"! c #F8D0B0",
"~ c #ACB6C6",
"^ c #B0BACC",
"/ c #B8BFCC",
"( c #BCC3D2",
") c #C4CDDA",
"_ c #C8CCD8",
"` c #E8D0C0",
"' c #D8E0E8",
"] c #E0E2E8",
"[ c #E0E6EC",
"{ c #E8ECF0",
"} c #F0F2F4",
"| c #F8F8F8",
/* pixels */
"WWWW``WWWWWWWWWWWWPPPPWWWWPPPPWWWWWW``WWWWWWWWWWWW",
"WWWW``WWWWWWWWWWWWPPPPWWWWPPPPWWWWWW``WWWWWWWWWWWW",
"WWWWWW``WWWWWWWWWWWWPPPPffffWWWWWWWWWW``WWWWWWWWWW",
"WWWWWW``WWWWWWWWWWWrrPPPffffWWWWWWWWWW``WWWWWWWWWW",
"WWWWWWWWWWWWWWWWWWr]UrPPffffWWWWWWWWWWWWWWWWWWWWWW",
"WWWWWWWWWWWWWWWWWZr||UrPffffWWWWWWWWWWWWWWWWWWWWWW",
"WWWWWWWWPPPPWWWWWrG|||UrrrrrrZWWWWWWWWWWPPPPWWWWWW",
"WWWWWWWWPPPPWWWWWr(}}}}(FrrrrrrZWWWWWWWWPPPPWWWWWW",
"WWPPWWWWPPPPWWDrrI[[[[[[''[}|_GrrZPPWWWWPPPPWWWWWW",
"WWPPWWWWPPPPWrrF^''''[[[[[{}|||UrrePWWWWPPPPWWWWWW",
"PPWWWWWWWWPPrF^'''''[{}}}}}|||||Ure8WWWWWWPPPPWWWW",
"PPWWWWWWWWPrI'''''''[{}}}}}}|||||r96wWWWWWPPPPWWWW",
"WWWWWWWWWWrI'''''''''[[[[[[/S77xxxz1<WWWWWWWPPPPWW",
"WWWWWWWWWWr)'''''''''''''~A7775lxxx**WWWWWWWPPPPWW",
"WWWWWWWWWWHrr @''''~A7777777775<*jjjjWWWWWPPPPPPPP",
"WWWWWWWWWWPHr  '''K557777777775<*ajjjWWWWWPPPPPPPP",
"WWWWWWWWPPPPP  ''J<<25777777775<***ttWWWPPPPPPPPPP",
"WWWWWWWWPPPPP  'J***<2555577775<***ttWWWPPPPPPPPPP",
"WWWWWWPPPPPPP  ******<<<<# !!!!!!NNttWPPPPPPPPPPff",
"WWWWWWPPPPPPP  *********o  !!!!!!BNttWPPPPPPPPPPff",
"WWWWPPPPPPPPP& ********$ hN!!44!!!!ttPPPPPPPPPffff",
"WWWWPPPPPPPPPP %*******. NVQ!**!!!!ttPPPPPPPPPffff",
"WWPPPPPPPPPPff-    NVTE  NVTE**!!!!tiPPPPPPPffffff",
"WWPPPPPPPPPPfff    NVTT+XNVYT3*!!!RtLPPPPPPPffffff",
"PPPPPPWWWWPPfff  >tNVTTVNNNVVVNNNttcPPWWWWPPffffPP",
"PPPPPPWWWWPPfffq >tNNYYVNNNNNNNNMtcPPPWWWWPPffffPP",
"PPPPWW``````PPPPq  *uNVNNNNNNdtttcPPWW``````PPPPPP",
"PPPPWW``````PPPPq  **0gNNNNNNtttcPPPWW``````PPPPPP",
"ffWW````WWWWWWPq vnnb****jj**ttcffWW````WWWWWWPPPP",
"ffWW````WWWWWWq  nnnn****jj**;tcffWW````WWWWWWPPPP",
"WWWW``WWWWWWWW mCtsnn***$  .$*;tWWWW``WWWWWWWWWWWW",
"WWWW``WWWWWWW& CCtsny***.    o*tiWWW``WWWWWWWWWWWW",
"WWWW``WWWWWWW& nnnny***o mCCm  :t &W``WWWWWWWWWWWW",
"WWWW``WWWWWWWW ,nnn**$.  CCCC  Ot  &``WWWWWWWWWWWW",
"WWWWWW``WWWWWWq ,nn      nnnn    := &W``WWWWWWWWWW",
"WWWWWW``WWWWWWq  ,v      vnnv   =tt &W``WWWWWWWWWW",
"WWWWWWWWWWWWWW pp              =tt: &WWWWWWWWWWWWW",
"WWWWWWWWWWWWW& jj             =tttO &WWWWWWWWWWWWW",
"WWWWWWWWPPPPW& jjnv          =ttt= &WWWWPPPPWWWWWW",
"WWWWWWWWPPPPW& pjnn          >t:O &WWWWWPPPPWWWWWW",
"WWPPWWWWPPPPWW&  xxxk  &PPPP&    &PPWWWWPPPPWWWWWW",
"WWPPWWWWPPPPWWW& kxxk &PPPPPP&&&&WPPWWWWPPPPWWWWWW",
"PPWWWWWWWWPPPPWW&    &WWWWPPPPPPPPWWWWWWWWPPPPWWWW",
"PPWWWWWWWWPPPPWWW&&&&WWWWWPPPPPPPPWWWWWWWWPPPPWWWW",
"WWWWWWWWWWWWPPPPWWWWWWWWWWffPPPPWWWWWWWWWWWWPPPPWW",
"WWWWWWWWWWWWPPPPWWWWWWWWWWffPPPPWWWWWWWWWWWWPPPPWW",
"WWWWWWWWWWPPPPPPPPWWWWWWPPffffWWWWWWWWWWWWPPPPPPPP",
"WWWWWWWWWWPPPPPPPPWWWWWWPPffffWWWWWWWWWWWWPPPPPPPP",
"WWWWWWWWPPPPPPPPPPffPPPPPPffWWWWWWWWWWWWPPPPPPPPPP",
"WWWWWWWWPPPPPPPPPPffPPPPPPffWWWWWWWWWWWWPPPPPPPPPP"
};
