/* XPM */
static char *_f24b845b52d4132edd18d7fba170d089IKfKLzZjEzTiftd[] = {
/* columns rows colors chars-per-pixel */
"50 50 59 1 ",
"  c black",
". c #04080E",
"X c #0F0808",
"o c #1B120E",
"O c #0E1814",
"+ c #08101C",
"@ c #1E1010",
"# c #0C182A",
"$ c #0E1C31",
"% c #1C3028",
"& c #102038",
"* c #3C2020",
"= c #283430",
"- c #693838",
"; c #29384E",
": c #386050",
"> c #384878",
", c #784040",
"< c #77504C",
"1 c #766058",
"2 c #A83838",
"3 c #945A50",
"4 c #986054",
"5 c #A86858",
"6 c #906868",
"7 c #C04040",
"8 c #A1854D",
"9 c #A38954",
"0 c #B89858",
"q c #D9A84D",
"w c #E8B055",
"e c #D89070",
"r c #E09C78",
"t c #D8A07C",
"y c #D9A87E",
"u c #F8C058",
"i c #4E5C87",
"p c #466682",
"a c #606E94",
"s c #687498",
"d c #748090",
"f c #B89088",
"g c #8894B0",
"h c #909AB4",
"j c #98A0B8",
"k c #F0B488",
"l c #F8C090",
"z c #D8C0A0",
"x c #B0BACC",
"c c #BCC3D2",
"v c #C4CDDA",
"b c #C8CCD8",
"n c #E8D0C0",
"m c #D8E0E8",
"M c #E0E2E8",
"N c #E0E6EC",
"B c #E8ECF0",
"V c #F0F2F4",
"C c #F8F8F8",
/* pixels */
"zzzznnzzzzzzzzzzzzffffzzzzffffzzzzzznnzzzzzzzzzzzz",
"zzzznnzzzzzzzzzzzzffffzzzzffffzzzzzznnzzzzzzzzzzzz",
"zzzzzznnzzzzzzzzzzzzffff6666zzzzzzzzzznnzzzzzzzzzz",
"zzzzzznnzzzzzzzzzzzzffff6666zzzzzzzzzznnzzzzzzzzzz",
"zzzzzzzzzzzzzzzzzzz>>zff6666zzzzzzzzzzzzzzzzzzzzzz",
"zzzzzzzzzzzzzzzzzz>Mj>ff6666zzzzzzzzzzzzzzzzzzzzzz",
"zzzzzzzzffffzzzzz>>CCj>zff66zzzzzzzzzzzzffffzzzzzz",
"zzzzzzzzffffzzzz>>>CCCj>>>>>>pzzzzzzzzzzffffzzzzzz",
"zzffzzzzffffzzz>>>iVVVVca>>>>>>zzzffzzzzffffzzzzzz",
"zzffzzzzffffzz>vmmNNNNNNmmNVCbs>zzffzzzzffffzzzzzz",
"ffzzzzzzzzffff>gmmmmmNNNNNBVCCCj>fzzzzzzzzffffzzzz",
"ffzzzzzzzzffffz>gmmmNBVVVVVCCCCCj>zzzzzzzzffffzzzz",
"zzzzzzzzzzzzfff>gmmNBVCCCCCVVVVVVh>zzzzzzzzzffffzz",
"zzzzzzzzzzzzff>ammNBVCCCCCVBNNNNNNa>zzzzzzzzffffzz",
"zzzzzzzzzzfff>>xmmNBVVVVVVBNmmmmmmx>>zzzzzffffffff",
"zzzzzzzzzzfff  mmmmNNNNNNNNmmmmmmmm  zzzzzffffffff",
"zzzzzzzzfffff  mmmmmmmmmmmmmmmmmmmm  zzzffffffffff",
"zzzzzzzzfffff  &;mmmmmmmmmmmmmmmm;&  zzzffffffffff",
"zzzzzzfffffff  $&mmmmmmmmmmmmmmmm&$  zffffffffff66",
"zzzzzzfffff<,ly  mmddmmmmmmmmddmm  yl,<fffffffff66",
"zzzzfffffff,,ll  md&&dmmmmmmd&&dm  ll,,fffffff6666",
"zzzzfffffff1,tl,,&&&&&dmmmmd&&&&&,,lt,1fffffff6666",
"zzffffffffff,4k,,&&&&&&mmmm&&&&&&,,k4,ffffff666666",
"zzffffffffff1,3reee            eeer3,1ffffff666666",
"ffffffzzzzff6,,5eeeo          oeee5,,fzzzzff6666ff",
"ffffffzzzzff666,5eeerkllllllkreee5,X fzzzzff6666ff",
"ffffzznnnnnnfff,,eeerkllllllkreee,,  znnnnnnffffff",
"ffffzznnnnnnfffff&&77,,,,,,,,&&&&00 %znnnnnnffffff",
"66zznnnnzzzzzzfff&&77,,,,,,,,&&&&08 nnnnzzzzzzffff",
"66zznnnnzzzzzzfO 77&&        &&#.  %nnnnzzzzzzffff",
"zzzznnzzzzzzzzz  77&$        $+    znnzzzzzzzzzzzz",
"zzzznnzzzzzzzzz  ,,  80CCCC08      znnzzzzzzzzzzzz",
"zzzznnzzzzzzzzz  *,  00CCCC00      znnzzzzzzzzzzzz",
"zzzznnzzzzzzz<,uq @,,uuuuuuuu,-    znnzzzzzzzzzzzz",
"zzzzzznnzzzzz,,uu  ,,wuuuuuuw,,    zzznnzzzzzzzzzz",
"zzzzzznnzzzzz&&00  ,,,,,,,,,,,,  -,zzznnzzzzzzzzzz",
"zzzzzzzzzzzzzz&90  -,,,,,,,,,,-  ,,zzzzzzzzzzzzzzz",
"zzzzzzzzzzzzzzz&&    00000000    zzzzzzzzzzzzzzzzz",
"zzzzzzzzffffzzzz&    80000008    zzzzzzzffffzzzzzz",
"zzzzzzzzffffzzzzzz%              zzzzzzzffffzzzzzz",
"zzffzzzzffffzzzzzzzz=            zffzzzzffffzzzzzz",
"zzffzzzzffffzzzzzzzzzz%  -,,,72  zffzzzzffffzzzzzz",
"ffzzzzzzzzffffzzzzzzzzz: -,,,72 :fzzzzzzzzffffzzzz",
"ffzzzzzzzzffffzzzzzzzzzz:      :ffzzzzzzzzffffzzzz",
"zzzzzzzzzzzzffffzzzzzzzzzz%  %ffzzzzzzzzzzzzffffzz",
"zzzzzzzzzzzzffffzzzzzzzzzz66ffffzzzzzzzzzzzzffffzz",
"zzzzzzzzzzffffffffzzzzzzff6666zzzzzzzzzzzzffffffff",
"zzzzzzzzzzffffffffzzzzzzff6666zzzzzzzzzzzzffffffff",
"zzzzzzzzffffffffff66ffffff66zzzzzzzzzzzzffffffffff",
"zzzzzzzzffffffffff66ffffff66zzzzzzzzzzzzffffffffff"
};
