/* XPM */
static char *_0af8c3d0c234cd687318808e8242e1b2dHM5sGwZtDG43yR[] = {
/* columns rows colors chars-per-pixel */
"50 50 24 1 ",
"  c #101010",
". c #702058",
"X c #7A6E5E",
"o c #606060",
"O c #906868",
"+ c #A1907A",
"@ c #504880",
"# c #7870B8",
"$ c #B05098",
"% c #D070B8",
"& c #B89088",
"* c #BDA88C",
"= c #CAB497",
"- c #CDB698",
"; c #D3BC9D",
": c #D6BE9E",
"> c #D5BEA0",
", c #D8C0A0",
"< c #A8A0E8",
"1 c #F080D8",
"2 c #D0D0D0",
"3 c #E8D0C0",
"4 c #C8C0F8",
"5 c #F8F8F8",
/* pixels */
",,,,33,,,,,,,,,@,,&&&&,,,,&&&&,,,,,,33,,,,,,,,,,,,",
",,,,33,,,,,,,,@ ,,&&&&,,,,&&&&,,,,,,33,,,,,,,@@@  ",
",,,,,,33,,,,,@< ,,,,&&&&OOOO,,,,,,,,,,33,,@@<##...",
",,,,,,33,,,,@<< ,,,,&&&&OOOO,,,,,,,,,,3@ @<#@$$$$,",
",,,,,,,,,,,@<<# ,,,,,,&&OOOO,,,,,,,,,@#<<@@@$$$$,,",
",,,,,,,,,,,#<<# ,,,,,,&&OOOO,,,,,,,@#<<@@$$$%%$,,,",
",,,,,,,,&&@<<<# ,,,,,,,,&&OO,,,,,@#<<@@$$$%%%$,,,,",
",,,,,,,,&&#<<<#@,,,,,,,,&&OO,,,,@<<@@$$$%%%1.,,,,,",
",,&&,,,,&@<<<<##@,,,,,&&&&&&&&,@4<@$$$%%%111$,,,,,",
",,&&,,,,&#<<<<<# ,,,,,&&&&&&&&@44@$$$%%%111.,,,,,,",
"&&,,,,,,@<<<<<<<#@,,,,,,,,&&&&@4#@$$%%%1111$&&,,,,",
"&&,,,,,,@<<<44@@@#@ ,,,,,,&&&&& #@$$%%%111$&&&,,,,",
",,,,,,,,#<44#@#### ,,,,,,,OO&&&&@#@@@%%111.,&&&&,,",
",,,,,,,@<<<###### ,,,,,,,,OO&&&& #####@@%1.,&&&&,,",
",,,,,,,@<<####### ,,,,,,&&OOOO,, ##@@@##@1.&&&&&&&",
",,,,,,,@@<<<##### ,,,,,,&&OOOO,, #@$$$$@##.&&&&&&&",
",,,,,,,,&@@<<<###@OO&&&&&&OO,,,, #@$$%%%%@#&&&&&&&",
",,,,,,,,&&&@@<<### O&&&&&&OO,,,, #@$%%%%. @&&&&&&&",
",,,,,,&&&&&&&@<###@OOOOOOO&&,,,,@#@$%%. &&&&&&&&OO",
",,,,,,&&&&&&&&@<### OOOOOO&&,,,@#@$%% &&&&&&&&&&OO",
",,,,&&&&&&&&&&O@###@OO&&&&&&,@@@#@$% &&&&&&&&&OOOO",
",,,,&&&&&&&&&&OO@### O&&&&&@#<< @$$ &&&&&&&&&&OOOO",
",,&&&&##@&&&OOOOO ### &&&@#<<.$ $$.&&&&&&&&&OOOOOO",
",,&&&&#<<@ &OOOOOO ###  @<<.$%% $$ &&&&&&&&&OOOOOO",
"&&&&&&...<<@ OOO&&& ###@<#..11@$$.&&&&,,,,&&OOOO&&",
"&&&&&&.%$.<## O#@@   # <#.$%.1 $$ &&&&,,,,&&OOOO&&",
"&&&&,,3.%..##@@444<<# <##.$%.@$$.&&&,,333333&&&&&&",
"&&&&,,3.1.%.#<444<<<<<##.$$$% $$ &&&,,333333&&&&&&",
"OO,,3333.1.$@444<<<<<###.$$$ #$$ O,,3333,,,,,,&&&&",
"OO,,3333,.%@<4<<<<<<#####@@  ###@ ,,3333,,,,,,&&&&",
",,,,33,,,,.@<<<<<<<<########@##### ,33,,,,,,,,,,,,",
",,,,33,,,,,@@@@@@@<<<##########<<##,33,,,,,,,,,,,,",
",,,,33,,,,,o2    2@@@<########<<<<#@33,,,,,,,,,,,,",
",,,,33,,,,,o5    5   @########<<<<# 33,,,,,,,,,,,,",
",,,,,,33,,,>          @## ####<<<<# ,,33,,,,,,,,,,",
",,,,,,33,:;*+X        @#@@#####<<## ,,33,,,,,,,,,,",
",,,,,,,,;;=*--  ooo      ######### ,,,,,,,,,,,,,,,",
",,,,,,:::::,:o ooo 5 @ &O ####### #,,,,,,,,,,,,,,,",
",,,,,,,,&&&&,o2 oo 2< ,,&& @#@   ##@,,,,&&&&,,,,,,",
",,,,,,,,&&&&,,o      ,,,&&OO@# ,,@# ,,,,&&&&,,,,,,",
",,&&,,,,&&&&,,,,,,,,,,&&&&&&@# ,,@# ,,,,&&&&,,,,,,",
",,&&,,,,&&&&,,,,,,,,,,&&&&&&# ,,,,# ,,,,&&&&,,,,,,",
"&&,,,,,,:,&&&&,,,,,,,,,,,,&@#@&&&&# ,,,,,,&&&&,,,,",
"&&,,,,,,>,&&&&,,,,,,,,,,,,&#@&&&&&# ,,,,,,&&&&,,,,",
",,,,,,,,,,,,&&&&,,,,,,,,,,O# &&&,,# ,,,,,,,,&&&&,,",
",,,,,,,,,,,,&&&&,,,,,,,,,,#@&&&&,,#@,,,,,,,,&&&&,,",
",,,,,,,,,,&&&&&&&&,,,,,,&&# OO,,,#@,,,,,,,&&&&&&&&",
",,,,,,,,,,&&&&&&&&,,,,,,&# OOO,,,# ,,,,,,,&&&&&&&&",
",,,,,,,,&&&&&&&&&&OO&&&&& OO,,,,,# ,,,,,&&&&&&&&&&",
",,,,,,,,&&&&&&&&&&OO&&&&&&OO,,,,,@,,,,,,&&&&&&&&&&"
};
