/* XPM */
static char *_eb07eadbd2b4b95ceabc35911d36e940v6qUAzHTvTHUTpD[] = {
/* columns rows colors chars-per-pixel */
"50 50 17 1 ",
"  c #101010",
". c #702058",
"X c #606060",
"o c #906868",
"O c #504880",
"+ c #7870B8",
"@ c #B05098",
"# c #D070B8",
"$ c #B89088",
"% c #D8C0A0",
"& c #A8A0E8",
"* c #F080D8",
"= c #D0D0D0",
"- c #E8D0C0",
"; c #C8C0F8",
": c #F8F8F8",
"> c white",
/* pixels */
"%%%%--%%%%%%%%%%%%$$$$%%%%$$$$%%%%%%--%%%%%%%%%%%%",
"%%%%--%%%%%%%%%%%%$$$$%%%%$$$$%%%%%%--%%%%%%%%%%%%",
"%%%%%%--%%%%%%%%%%%%$$$$oooo%%%%%%%%%%--%%%%%%%%%%",
"%%%%%%--%%%%%%%%%%%%$$$$oooo%%%%%%%%%%--%%%%%%%%%%",
"%%%%%%%%%%%%%%%%%%%%%%$$oooo%%%%%%%%%%%%%%%%%%%%%%",
"%%%%%%%%%%%%%%%%%%%%%%$$oooo%%%%%%%%%%%%%%%%%%%%%%",
"%%%%%%%%$$$$%%%%%%%%%%%%$$oo%%%%%%%%%%%%$$$$%%%%%%",
"%%%%%%%%$$$$%%%%%%%%%%%%$$ooO%%%%%%%%%%%$$$$%%%%%%",
"%%$$%%%%$$$$%%%%%%%%%%$$$$OOO$%%%%$$%%%%$$$$%%%%%%",
"%%$$%%%%$$$$%%%%%%%%%%$O++&& $%%%%$$%%%%$$$$%%%%%%",
"$++O%%%%%%$$$$%%%%%%%O+&&&.@ $$$$$%%%%%%%%$$$$%%%%",
"$+&&O %%%%$$$$%%%%%%O&&.@@## $$$$$%%%%%%%%$$$$%%%%",
"%.#@.&++  %+OO   % &+.@#..* $$$$%%%%%%%%%%%%$$$$%%",
"%%.#..++OOO;;;&&+ &++.@#..Oo$$$$%%%%%%%%%%%%$$$$%%",
"%%.*.#.+&&;;;&&&&&++.@@@## ooo%%%%%%%%%%%%$$$$$$$$",
"%%%.*.@O;;;;&&&&&+++.@@@  +ooo%%%%%%%%%%%%$$$$$$$$",
"%%%%.#O&;;&&&&&&+++++OO      %%%%%%%%%%%$$$$$$$$$$",
"%%%%%.O&&&&&&&&&++++++++OOO+++ %%%%%%%%%$$$$$$$$$$",
"%%%%%%OOOOOOOO&&&++++++++++ &+++%%%%%%$$$$$$$$$$oo",
"%%%%%%X=     =OOO&+++++++++ && + %%%%%$$$$$$$$$$oo",
"%%%%$$X:     :   O++++++++++ &&  %%%$$$$$$$$$$oooo",
"%%%%$$$           O++ ++++++ &&+ %%%$$$$$$$$$$oooo",
"%%$$$$$$$$        O+OO++++++O&&& %$$$$$$$$$$oooooo",
"%%$$$$$$$$  XXX      ++++++++O&&+ $$$$$$$$$$oooooo",
"$$$$$$%%XX XXX : O $$ +++++++O&&&+O$$$%%%%$$oooo$$",
"$$$$$$%%XX= XX =& $$$$ O++O  O&&&&+O$$%%%%$$oooo$$",
"$$$$%%--  X      .$$$$%%OO+ >O&&&&++  O-----$$$$$$",
"$$$$%%++;;&......$$$$$%%OO+ >O&&&++OOO+  ---$$$$$$",
"oo%%+;++++O.@@@@$$$$%%$O++O$O&&+O++++++  %%%%%$$$$",
"oo%%+&OO++++@@@.$$$$%%$+OO$$O&&O+&+++++  %%%%%$$$$",
"%%%%-O+...OOO+++%%%%%%%+  %O&&O&&&&++++  %%%%%%%%%",
"%%%%-O+@###..OOO+O%%%%+O%%%O;O&&&&&++++++ %%%%%%%%",
"%%%%-O+@#####.+.%%$$$$+ %%$O;&&&&&&&+++++ %%%%%%%%",
"%%%%--O+@@###@.%%%$$$+ %%%$$O&&&&&&&++++++ %%%%%%%",
"%%%%%%O+@@###@.%%%%%$ $$ooooO;&&&&&&&+++++ %%%%%%%",
"%%%%%%-O++@##@.%%%%%$$$$oooo%O&&&&&&&&+++++ %%%%%%",
"%%%%%%%O++@##@%%%%%%%%$$oooo%%O+&&&&&&&++++ %%%%%%",
"%%%%%%%%OO@@#@%%%%%%%%$$oooo%%%%O+&&&&&&&+++O%%%%%",
"%%%%%%%%OO+@#.%%%%%%%%%%$$oo%%%%%%O+&&&&&&&++O%%%%",
"%%%%%%%%$$O+@.%%%%%%%%%%$$oo%%%%%%%%+++&&&&&&+O%%%",
"%%$$%%%%$$$O+.%%%%%%%%$$$$$$$$%%%%$$%%%++++&&&&OO%",
"%%$$%%%%$$$$+.%%%%%%%%$$$$$$$$%%%%$$%%%%$$$++O  %%",
"$$%%%%%%%%$$$O%%%%%%%%%%%%$$$$$$$$%%%%%%%%$$$$%%%%",
"$$%%%%%%%%$$$$%%%%%%%%%%%%$$$$$$$$%%%%%%%%$$$$%%%%",
"%%%%%%%%%%%%$$$$%%%%%%%%%%oo$$$$%%%%%%%%%%%%$$$$%%",
"%%%%%%%%%%%%$$$$%%%%%%%%%%oo$$$$%%%%%%%%%%%%$$$$%%",
"%%%%%%%%%%$$$$$$$$%%%%%%$$oooo%%%%%%%%%%%%$$$$$$$$",
"%%%%%%%%%%$$$$$$$$%%%%%%$$oooo%%%%%%%%%%%%$$$$$$$$",
"%%%%%%%%$$$$$$$$$$oo$$$$$$oo%%%%%%%%%%%%$$$$$$$$$$",
"%%%%%%%%$$$$$$$$$$oo$$$$$$oo%%%%%%%%%%%%$$$$$$$$$$"
};
