/* XPM */
static char *bdf1475c1d0942fc8ebfd279b3fc4b5dFUauffk5qDhK68EZ[] = {
/* columns rows colors chars-per-pixel */
"50 50 85 1 ",
"  c black",
". c #020407",
"X c #04080E",
"o c #1B120E",
"O c #08101C",
"+ c #1D1510",
"@ c #1B1C1D",
"# c #0C182A",
"$ c #0E1C31",
"% c #102C20",
"& c #1C3028",
"* c #102038",
"= c #693838",
"- c #6B3C3F",
"; c #5C4C2C",
": c #162642",
"> c #1A2A48",
", c #1C2C4C",
"< c #2B3141",
"1 c #2D3647",
"2 c #223256",
"3 c #283860",
"4 c #2E3E68",
"5 c #423C46",
"6 c #386050",
"7 c #384878",
"8 c #784040",
"9 c #645C48",
"0 c #745854",
"q c #446458",
"w c #766058",
"e c #41617A",
"r c #A83838",
"t c #AA3C3F",
"y c #804B43",
"u c #90544C",
"i c #B74040",
"p c #906868",
"a c #A67462",
"s c #C04040",
"d c #DC5956",
"f c #DD5A58",
"g c #F86058",
"h c #C07C64",
"j c #748070",
"k c #A1854D",
"l c #A38954",
"z c #B89858",
"x c #D9A84D",
"c c #CC866A",
"v c #D89070",
"b c #DC9878",
"n c #E09C78",
"m c #F8C058",
"M c #466682",
"N c #546282",
"B c #5C6886",
"V c #606E94",
"C c #687498",
"Z c #748090",
"A c #7A869A",
"S c #B89088",
"D c #8894B0",
"F c #98A0B8",
"G c #E8A880",
"H c #F0B488",
"J c #DCBBA3",
"K c #E8BEA2",
"L c #F8C090",
"P c #D8C0A0",
"I c #F6CBAA",
"U c #F8D0B0",
"Y c #ACB6C6",
"T c #B0BACC",
"R c #B8BFCC",
"E c #BCC3D2",
"W c #C4CDDA",
"Q c #C8CCD8",
"! c #E8D0C0",
"~ c #D8E0E8",
"^ c #E0E2E8",
"/ c #E0E6EC",
"( c #E8ECF0",
") c #F0F2F4",
"_ c #F8F8F8",
/* pixels */
"PPPP!!PPPPPPPPPPPPSSSSPPPPSSSSPPPPPP!!PPPPPPPPPPPP",
"PPPP!!PPPPPPPPPPPPSSSSPPPPSSSSPPPPPP!!PPPPPPPPPPPP",
"PPPPPP!!PPPPPPPPPPPPSSSSppppPPPPPPPPPP!!PPPPPPPPPP",
"PPPPPP!!PPPPPPPPPPPPSSSSppppPPPPPPPPPP!!PPPPPPPPPP",
"PPPPPPPPPPPPPPPPPPPPPPSSppppPPPPPPPPPPPPPPPPPPPPPP",
"PPPPPPPPPPPPPPPPPPPP77SSppppPPPPPPPPPPPPPPPPPPPPPP",
"PPPPPPPPSSSSPPPPPPP7^F7PSSppPPPPPPPPPPPPSSSSPPPPPP",
"PPPPPPPPSSSSPPPPPPM7__F7SSppPPPPPPPPPPPPSSSSPPPPPP",
"PPSSPPPPSSSSPPPPPP7C___F777777MPPPSSPPPPSSSSPPPPPP",
"PPSSPPPPSSSSPPPPPP7E))))EV777777MPSSPPPPSSSSPPPPPP",
"SSPPPPPPPPSSSSPM77D//////~~/)_QC77MPPPPPPPSSSSPPPP",
"SSPPPPPPPPSSSS77VT~~~~/////()___F777PPPPPPSSSSPPPP",
"PPPPPPPPPPPPS7VT~~~~~/()))))_____F777PPPPPPPSSSSPP",
"PPPPPPPPPPPP7D~~~~~~~/())))))_____744ePPPPPPSSSSPP",
"PPPPPPPPPPS7D~~~~~~~~~//////RB33gggf>>PPPPSSSSSSSS",
"PPPPPPPPPPS7W~~~~~~~~~~~~~YN3332dggg**PPPPSSSSSSSS",
"PPPPPPPPSSSS77 @~~~~YN3333333332:*ssssPPSSSSSSSSSS",
"PPPPPPPPSSSSS7  ~~~A223333333332:*tsssPPSSSSSSSSSS",
"PPPPPPSSSSSSSS  ~~Z::,2333333332:***88SSSSSSSSSSpp",
"PPPPPPSSSSSSSS  ~Z***:,222222332:***88SSSSSSSSSSpp",
"PPPPSSSSSSSSSS  ******::::::JUUUUUvv88SSSSSSSSpppp",
"PPPPSSSSSSSSSS  ************UUUUUUbv88SSSSSSSSpppp",
"PPSSSSSSSSSSpp& ********. vvUU11UUUU88SSSSSSpppppp",
"PPSSSSSSSSSSppp $*******  vnIU**UUUU88SSSSSSpppppp",
"SSSSSSPPPPSSppp&    vnHL  vnHL**UUUU88PPPPSSppppSS",
"SSSSSSPPPPSSpppp    vnHH+ovnGH<*UUUK88PPPPSSppppSS",
"SSSSPP!!!!!!SSSS  =8vnHHnvvvnnnvvv888P!!!!!!SSSSSS",
"SSSSPP!!!!!!SSSSq =8vvGGnvvvvvvvvc88PP!!!!!!SSSSSS",
"ppPP!!!!PPPPPPSSS6  *0vnvvvvvvhu88wP!!!!PPPPPPSSSS",
"ppPP!!!!PPPPPPSSS6  **5avvvvhu888jPP!!!!PPPPPPSSSS",
"PPPP!!PPPPPPPPPPP kzzl**ss**8888jPPP!!PPPPPPPPPPPP",
"PPPP!!PPPPPPPPPP  zzzz**ss**-888jPPP!!PPPPPPPPPPPP",
"PPPP!!PPPPPPPPP xm8yzz*#  X#**si8PPP!!PPPPPPPPPPPP",
"PPPP!!PPPPPPPP& mm8yz9*X    O*ts8wPP!!PPPPPPPPPPPP",
"PPPPPP!!PPPPPP  zzzz9*O xmmx #**88PPPP!!PPPPPPPPPP",
"PPPPPP!!PPPPPP  ;zzz*O  mmmm X**88PPPP!!PPPPPPPPPP",
"PPPPPPPPPPPPPPPP ;zz    zzzz  **  PPPPPPPPPPPPPPPP",
"PPPPPPPPPPPPPPPP  ;k    kzzk  $$ 6PPPPPPPPPPPPPPPP",
"PPPPPPPPSSSSPPPPP&              &PPPPPPPSSSSPPPPPP",
"PPPPPPPPSSSSPPPPPP6             PPPPPPPPSSSSPPPPPP",
"PPSSPPPPSSSSPPPPPPP&            PPSSPPPPSSSSPPPPPP",
"PPSSPPPPSSSSPPPPPPPP            &PSSPPPPSSSSPPPPPP",
"SSPPPPPPPPSSSSPPPPPP  =8zz****sr 6PPPPPPPPSSSSPPPP",
"SSPPPPPPPPSSSSPPPPPPP =8zz****sr 6PPPPPPPPSSSSPPPP",
"PPPPPPPPPPPPSSSSPPPPP6          6PPPPPPPPPPPSSSSPP",
"PPPPPPPPPPPPSSSSPPPPPPP%      &SPPPPPPPPPPPPSSSSPP",
"PPPPPPPPPPSSSSSSSSPPPPPPSSppppPPPPPPPPPPPPSSSSSSSS",
"PPPPPPPPPPSSSSSSSSPPPPPPSSppppPPPPPPPPPPPPSSSSSSSS",
"PPPPPPPPSSSSSSSSSSppSSSSSSppPPPPPPPPPPPPSSSSSSSSSS",
"PPPPPPPPSSSSSSSSSSppSSSSSSppPPPPPPPPPPPPSSSSSSSSSS"
};
