/* XPM */
static char *_499ff50cc1949c8cf8e54b3f8e9166ezGg2JQ1BMsi2lxht[] = {
/* columns rows colors chars-per-pixel */
"50 50 4 1 ",
"  c #906868",
". c #B89088",
"X c #D8C0A0",
"o c #E8D0C0",
/* pixels */
"XXXXooXXXXXXXXXXXX....XXXX....XXXXXXooXXXXXXXXXXXX",
"XXXXooXXXXXXXXXXXX....XXXX....XXXXXXooXXXXXXXXXXXX",
"XXXXXXooXXXXXXXXXXXX....    XXXXXXXXXXooXXXXXXXXXX",
"XXXXXXooXXXXXXXXXXXX....    XXXXXXXXXXooXXXXXXXXXX",
"XXXXXXXXXXXXXXXXXXXXXX..    XXXXXXXXXXXXXXXXXXXXXX",
"XXXXXXXXXXXXXXXXXXXXXX..    XXXXXXXXXXXXXXXXXXXXXX",
"XXXXXXXX....XXXXXXXXXXXX..  XXXXXXXXXXXX....XXXXXX",
"XXXXXXXX....XXXXXXXXXXXX..  XXXXXXXXXXXX....XXXXXX",
"XX..XXXX....XXXXXXXXXX........XXXX..XXXX....XXXXXX",
"XX..XXXX....XXXXXXXXXX........XXXX..XXXX....XXXXXX",
"..XXXXXXXX....XXXXXXXXXXXX........XXXXXXXX....XXXX",
"..XXXXXXXX....XXXXXXXXXXXX........XXXXXXXX....XXXX",
"XXXXXXXXXXXX....XXXXXXXXXX  ....XXXXXXXXXXXX....XX",
"XXXXXXXXXXXX....XXXXXXXXXX  ....XXXXXXXXXXXX....XX",
"XXXXXXXXXX........XXXXXX..    XXXXXXXXXXXX........",
"XXXXXXXXXX........XXXXXX..    XXXXXXXXXXXX........",
"XXXXXXXX..........  ......  XXXXXXXXXXXX..........",
"XXXXXXXX..........  ......  XXXXXXXXXXXX..........",
"XXXXXX..........          ..XXXXXXXXXX..........  ",
"XXXXXX..........          ..XXXXXXXXXX..........  ",
"XXXX..........        ......XXXXXXXX..........    ",
"XXXX..........        ......XXXXXXXX..........    ",
"XX..........      ............XXXX..........      ",
"XX..........      ............XXXX..........      ",
"......XXXX..    ........XX..XX........XXXX..    ..",
"......XXXX..    ........XX..XX........XXXX..    ..",
"....XXoooooo..........XX..XX........XXoooooo......",
"....XXoooooo..........XX..XX........XXoooooo......",
"  XXooooXXXXXX......XX..XX..XX..  XXooooXXXXXX....",
"  XXooooXXXXXX......XX..XX..XX..  XXooooXXXXXX....",
"XXXXooXXXXXXXXXXXXXXXXXXXXXX....XXXXooXXXXXXXXXXXX",
"XXXXooXXXXXXXXXXXXXXXXXXXXXX....XXXXooXXXXXXXXXXXX",
"XXXXooXXXXXXXXXXXX....XXXX....XXXXXXooXXXXXXXXXXXX",
"XXXXooXXXXXXXXXXXX....XXXX....XXXXXXooXXXXXXXXXXXX",
"XXXXXXooXXXXXXXXXXXX....    XXXXXXXXXXooXXXXXXXXXX",
"XXXXXXooXXXXXXXXXXXX....    XXXXXXXXXXooXXXXXXXXXX",
"XXXXXXXXXXXXXXXXXXXXXX..    XXXXXXXXXXXXXXXXXXXXXX",
"XXXXXXXXXXXXXXXXXXXXXX..    XXXXXXXXXXXXXXXXXXXXXX",
"XXXXXXXX....XXXXXXXXXXXX..  XXXXXXXXXXXX....XXXXXX",
"XXXXXXXX....XXXXXXXXXXXX..  XXXXXXXXXXXX....XXXXXX",
"XX..XXXX....XXXXXXXXXX........XXXX..XXXX....XXXXXX",
"XX..XXXX....XXXXXXXXXX........XXXX..XXXX....XXXXXX",
"..XXXXXXXX....XXXXXXXXXXXX........XXXXXXXX....XXXX",
"..XXXXXXXX....XXXXXXXXXXXX........XXXXXXXX....XXXX",
"XXXXXXXXXXXX....XXXXXXXXXX  ....XXXXXXXXXXXX....XX",
"XXXXXXXXXXXX....XXXXXXXXXX  ....XXXXXXXXXXXX....XX",
"XXXXXXXXXX........XXXXXX..    XXXXXXXXXXXX........",
"XXXXXXXXXX........XXXXXX..    XXXXXXXXXXXX........",
"XXXXXXXX..........  ......  XXXXXXXXXXXX..........",
"XXXXXXXX..........  ......  XXXXXXXXXXXX.........."
};
