/* XPM */
static char *e44194f0b138436c8cb3dfb3abc4b86ehRETRG22d904GOSB[] = {
/* columns rows colors chars-per-pixel */
"50 50 154 2 ",
"   c #221D15",
".  c #29241D",
"X  c #36331E",
"o  c #2F2A24",
"O  c #302B25",
"+  c #312C25",
"@  c #332E25",
"#  c #342E28",
"$  c #343122",
"%  c #393227",
"&  c #353029",
"*  c #38322B",
"=  c #3F3328",
"-  c #3B362D",
";  c #3C342E",
":  c #3E392F",
">  c #3D3831",
",  c #413423",
"<  c #433622",
"1  c #443622",
"2  c #413626",
"3  c #433726",
"4  c #473A25",
"5  c #4A3B25",
"6  c #4B3C25",
"7  c #473729",
"8  c #473829",
"9  c #4D3F28",
"0  c #513D2A",
"q  c #403731",
"w  c #403930",
"e  c #443832",
"r  c #443D33",
"t  c #463E34",
"y  c #463E37",
"u  c #483C36",
"i  c #493D37",
"p  c #513E3B",
"a  c #514128",
"s  c #5B402B",
"d  c #5B432C",
"f  c #5E442C",
"g  c #474035",
"h  c #4A4236",
"j  c #4F403A",
"k  c #4C4438",
"l  c #4F463A",
"z  c #4E453D",
"x  c #54443E",
"c  c #51483D",
"v  c #544C3F",
"b  c #62472D",
"n  c #64482D",
"m  c #654A30",
"M  c #6A4C30",
"N  c #6A4D30",
"B  c #6B4D30",
"V  c #714E31",
"C  c #6E5032",
"Z  c #735333",
"A  c #7E5634",
"S  c #584741",
"D  c #534A42",
"F  c #564C40",
"G  c #584E41",
"H  c #5A5043",
"J  c #5B5043",
"K  c #5C5344",
"L  c #5F5446",
"P  c #595048",
"I  c #5E544D",
"U  c #604E48",
"Y  c #63574B",
"T  c #61564E",
"R  c #6B554F",
"E  c #62584A",
"W  c #65594A",
"Q  c #665A4B",
"!  c #685D4E",
"~  c #6B5F4F",
"^  c #715351",
"/  c #6E6251",
"(  c #6E6259",
")  c #726654",
"_  c #7D6E5B",
"`  c #7E6F5C",
"'  c #7E705D",
"]  c #815735",
"[  c #855A36",
"{  c #885C36",
"}  c #895C37",
"|  c #8A5D37",
" . c #905E34",
".. c #936035",
"X. c #956135",
"o. c #A47244",
"O. c #A77445",
"+. c #AD7847",
"@. c #B67E4C",
"#. c #866962",
"$. c #886B64",
"%. c #906868",
"&. c #887A65",
"*. c #91726B",
"=. c #907F6A",
"-. c #997871",
";. c #A07D76",
":. c #93826C",
">. c #94836D",
",. c #8F8075",
"<. c #988672",
"1. c #9B8973",
"2. c #9D8B73",
"3. c #A08E76",
"4. c #A5827A",
"5. c #AA857E",
"6. c #AB877F",
"7. c #AA987E",
"8. c #C58F47",
"9. c #CA9855",
"0. c #CC9C5E",
"q. c #9E8D81",
"w. c #AE8880",
"e. c #B18B83",
"r. c #B28B84",
"t. c #B38C84",
"y. c #B68F87",
"u. c #B78F87",
"i. c #B68F88",
"p. c #B09D84",
"a. c #B79088",
"s. c #B89088",
"d. c #B4A085",
"f. c #B8A488",
"g. c #C0AA8E",
"h. c #C2AB8E",
"j. c #C3AD90",
"k. c #C7B093",
"l. c #C7B193",
"z. c #C8B193",
"x. c #C8B294",
"c. c #CCB797",
"v. c #CCB698",
"b. c #CEB799",
"n. c #D0B99A",
"m. c #D2BC9C",
"M. c #D5BD9E",
"N. c #D7BF9F",
"B. c #C5B1A3",
"V. c #D7BFA0",
"C. c #D8C0A0",
"Z. c #DDC7B8",
"A. c #E2CBBB",
"S. c #E8D0C0",
/* pixels */
"C.C.C.C.S.S.C.C.C.C.C.C.C.C.C.C.C.C.s.s.s.s.C.C.C.C.s.s.s.s.C.C.C.C.C.C.A.S.C.C.C.C.C.C.C.C.C.C.C.C.",
"C.C.C.C.S.S.C.C.C.C.C.C.C.C.C.C.C.C.s.s.s.s.C.C.C.C.s.s.s.s.C.C.C.C.C.C.S.S.C.C.C.C.C.C.C.C.C.C.C.C.",
"C.C.C.C.C.C.S.S.C.C.C.C.C.C.C.C.C.C.C.C.s.s.s.s.%.%.%.%.C.C.C.C.C.C.C.C.C.C.S.S.C.C.C.C.C.C.C.C.C.C.",
"C.C.C.C.C.C.S.S.C.C.C.C.C.C.C.C.C.C.C.C.s.s.s.s.%.%.%.%.C.C.C.C.C.C.C.C.C.C.S.S.C.C.C.C.C.C.C.C.C.C.",
"C.C.C.C.C.C.C.C.C.C.C.C.C.C.C.C.C.C.C.C.C.C.s.s.%.%.%.%.C.C.C.C.C.C.C.C.C.C.C.C.C.C.C.C.C.C.C.C.C.C.",
"C.C.C.C.C.C.C.C.C.C.C.C.C.C.C.C.C.C.C.C.C.C.s.s.%.%.%.%.C.C.C.C.C.C.C.C.C.C.C.C.C.C.C.C.C.C.C.C.C.C.",
"C.C.C.C.C.C.C.C.s.s.s.s.C.C.C.C.C.C.C.C.C.C.C.C.s.s.%.%.C.C.C.C.C.C.C.C.C.C.C.C.s.s.s.s.C.C.C.C.C.C.",
"C.C.C.C.C.C.C.C.s.s.s.s.C.C.C.C.C.C.C.C.C.C.C.C.s.s.%.%.C.C.C.C.C.C.C.C.C.C.C.C.s.s.s.s.C.C.C.C.C.C.",
"C.C.s.s.C.C.C.C.s.s.s.s.C.C.C.C.C.C.C.C.C.C.s.s.s.s.s.s.s.s.C.C.C.C.s.s.C.C.C.C.s.s.s.s.C.C.C.C.C.C.",
"C.C.s.s.C.C.C.C.s.s.s.s.C.C.C.C.C.C.C.C.C.C.s.s.s.s.s.s.s.s.C.C.C.C.s.s.C.C.C.C.s.s.s.s.C.C.C.C.C.C.",
"s.s.C.C.C.C.C.C.C.C.s.s.s.s.C.C.C.C.C.C.C.| | | | | s.s.s.s.s.s.s.s.C.C.C.C.C.C.C.C.s.s.s.s.V.C.C.C.",
"s.s.C.C.C.C.C.C.C.C.s.s.s.s.C.C.C.C.C.C.| | 8.8.+.+.6 6 s.s.s.s.s.s.C.C.C.C.C.C.C.C.s.s.s.s.N.N.C.C.",
"C.C.C.C.C.C.C.C.C.C.C.C.s.s.s.s.C.C.C.| 8.8.9.9.8.8.+.+.6 6 s.s.N.C.C.C.C.C.C.C.C.C.C.C.s.s.s.s.C.C.",
"C.C.C.C.C.C.C.C.C.C.C.C.s.s.s.s.C.| | 8.9.9.0.0.9.8.@.@.+.+.6 5 b.m.N.C.C.C.C.C.C.C.C.C.s.s.s.s.C.C.",
"C.C.C.C.C.C.C.C.C.C.s.s.s.s.s.s.| @.8.9.9.0.9.0.9.8.@.@.@.@.+. .% 3.M.C.C.C.C.C.C.C.s.s.s.s.s.s.s.s.",
"C.C.C.C.C.C.C.C.C.C.s.s.s.s.s.s.| 8.9.0.0.9.9.0.0.9.8.@.@.@.@.o.% >.h.b.M.N.C.C.C.C.s.s.s.s.s.s.s.s.",
"C.C.C.C.C.C.C.C.s.s.s.s.s.s.6 6 8.9.0.0.9.0.9.8.0.9.8.@.+.@.@.O.s $ Q / d.x.m.N.s.y.s.s.s.s.s.s.s.s.",
"C.C.C.C.C.C.C.C.s.s.s.s.s.6 X.6 8.9.9.0.9.0.9.8.9.9.8.+.X.+.+...A + > F ; E f.v.s.s.s.s.s.s.s.s.s.s.",
"C.C.C.C.C.C.s.s.s.s.s.s.6 | 6 6 +.8.8.9.9.9.9.8.8.8.@.@.+.X.+.X.[ s % & - c - $.*.y.s.s.s.s.s.s.%.%.",
"C.C.C.C.C.C.s.s.s.s.s.s.6 | 6 X.8.+.+.8.8.8.8.@.@.@.8.@.@.+.X.| { Z ] 4 > L u p R e.s.s.s.s.s.s.%.%.",
"C.C.C.C.s.s.s.s.s.s.s.s.6 Z 6 8.9.8.8.@.@.@.@.@.@.8.+.@.@.@.8.8.+.+.6 C 3 p U i x 4.e.s.s.s.%.%.%.%.",
"C.C.C.C.s.s.s.s.s.s.s.6 B B 6 +.8.0.0.8.@.@.@.8.8.8.+.+.@.@.0.0.8.+.6 N 4 u i - U u 5.s.s.s.%.%.%.%.",
"C.C.s.s.s.s.s.s.s.s.s.6 n X | X.+.8.8.@.@.@.@.8.@.@.@.+.+.@.8.8.+.X.| X f % e + ^ ; #.t.%.%.%.%.%.%.",
"C.C.s.s.s.s.s.s.s.s.s.6 n X | X.+.@.+.@.@.@.@.+.@.@.@.@.X.| +.@.+.X.| X s % q & x w x 6.%.%.%.%.%.%.",
"s.s.s.s.s.s.C.C.C.C.s.6 X | | | X.+.Z +.@.@.+.+.+.@.@.X.X.Z Z +...| | | $ + I & w t U w.%.%.%.%.s.s.",
"s.s.s.s.s.s.C.C.C.C.s.X | | | | | Z B X.+.@.+.X.X.+.X.| | Z B Z | | | [ V & / - W h U w.%.%.%.%.s.s.",
"s.s.s.s.C.C.S.S.S.S.S.X | | | | | Z B Z +.+.X.| | X.X.| Z B B Z | | | } V + > # I z ,.Z.s.s.s.s.s.s.",
"s.s.s.s.C.C.S.S.S.S.S.X Z | | | Z B B B Z X.X.X.| | | | | Z B B Z | | | m + - > P y q.A.s.s.s.s.s.s.",
"%.%.C.C.S.S.S.S.C.C.X n n Z Z | Z B B B B Z | | | | | | Z B B B Z | Z Z d 8 # 8 w r g.M.C.C.s.s.s.s.",
"%.%.C.C.S.S.S.S.C.C.X n B n B Z n n n B B Z | | | n | | Z B n n n Z B n B f $ # c ! x.C.C.C.s.s.s.s.",
"C.C.C.C.S.S.C.C.C.C.  n B n B n a a a n B B Z n n n n Z B B a a a n B f B n . : v ) c.N.C.C.C.C.C.C.",
"C.C.C.C.S.S.C.C.C.C.  6 n B n a 6 6 a n B B Z n n n n Z B B a 6 6 a m B n 4 . h _ =.m.C.C.C.C.C.C.C.",
"C.C.C.C.S.S.C.C.C.C.C.  n B n a 6 6 6 a n B n n n n n n B n 6 6 6 a n m 0 o K - >.7.m.C.C.C.C.C.C.C.",
"C.C.C.C.S.S.C.C.C.C.C.  n n a 6 6 1 6 a n B n n n a a n n 6 6 < 6 5 9 8 = + r @ <.m.V.C.C.C.C.C.C.C.",
"C.C.C.C.C.C.S.S.C.C.C.C.X n a 6 6 1 1 6 n n n n a 6 6 a n 6 1 1 , 1 8 * O c D ( h.C.C.C.C.C.C.C.C.C.",
"C.C.C.C.C.C.S.S.C.C.C.C.C.X X 6 1 1 1 6 a n n a 6 1 5 a b a , @ # % + + L c T B.m.C.C.C.C.C.C.C.C.C.",
"C.C.C.C.C.C.C.C.C.C.C.C.C.C.C.    X 1 6 a n a 6 1 1 6 9 * % @ @ + + & l ' > W g.V.C.C.C.C.C.C.C.C.C.",
"C.C.C.C.C.C.C.C.C.C.C.C.C.C.C.C.C.C.X X X 6 6 1 1 1 < % % + + ` g F c k J >.x.m.V.C.C.C.C.C.C.C.C.C.",
"C.C.C.C.C.C.C.C.s.s.s.s.C.C.C.C.C.C.C.C.X X X       + + @ &.W t & c l t 1.b.M.C.s.s.s.s.C.C.C.C.C.C.",
"C.C.C.C.C.C.C.C.s.s.s.s.C.C.C.C.C.C.C.C.C.C.C.C.s.r.^ p v G h c : & & h l.M.C.C.s.s.s.s.C.C.C.C.C.C.",
"C.C.s.s.C.C.C.C.s.s.s.s.C.C.C.C.C.C.C.C.C.C.s.s.s.y.t.w.;.-.p.2._ E #.4.m.C.C.C.s.s.s.s.C.C.C.C.C.C.",
"C.C.s.s.C.C.C.C.s.s.s.s.C.C.C.C.C.C.C.C.C.C.s.s.s.s.s.a.i.y.M.m.v.7.w.s.M.C.C.C.s.s.s.s.C.C.C.C.C.C.",
"s.s.C.C.C.C.C.C.C.C.s.s.s.s.C.C.C.C.C.C.C.C.C.C.C.C.s.s.s.s.s.s.s.y.M.C.C.C.C.C.C.C.s.s.s.s.C.C.C.C.",
"s.s.C.C.C.C.C.C.C.C.s.s.s.s.C.C.C.C.C.C.C.C.C.C.C.C.s.s.s.s.s.s.s.a.C.C.C.C.C.C.C.C.s.s.s.s.C.C.C.C.",
"C.C.C.C.C.C.C.C.C.C.C.C.s.s.s.s.C.C.C.C.C.C.C.C.C.C.%.%.s.s.s.s.C.C.C.C.C.C.C.C.C.C.C.C.s.s.s.s.C.C.",
"C.C.C.C.C.C.C.C.C.C.C.C.s.s.s.s.C.C.C.C.C.C.C.C.C.C.%.%.s.s.s.s.C.C.C.C.C.C.C.C.C.C.C.C.s.s.s.s.C.C.",
"C.C.C.C.C.C.C.C.C.C.s.s.s.s.s.s.s.s.C.C.C.C.C.C.s.s.%.%.%.%.C.C.C.C.C.C.C.C.C.C.C.C.s.s.s.s.s.s.s.s.",
"C.C.C.C.C.C.C.C.C.C.s.s.s.s.s.s.s.s.C.C.C.C.C.C.s.s.%.%.%.%.C.C.C.C.C.C.C.C.C.C.C.C.s.s.s.s.s.s.s.s.",
"C.C.C.C.C.C.C.C.s.s.s.s.s.s.s.s.s.s.%.%.s.s.s.s.s.s.%.%.C.C.C.C.C.C.C.C.C.C.C.C.s.s.s.s.s.s.s.s.s.s.",
"C.C.C.C.C.C.C.C.s.s.s.s.s.s.s.s.s.s.%.%.s.s.s.s.s.s.%.%.C.C.C.C.C.C.C.C.C.C.C.C.s.s.s.s.s.s.s.s.s.s."
};
